<?xml version="1.0" encoding="utf-8"?>
<!-- Generator: Adobe Illustrator 25.4.1, SVG Export Plug-In . SVG Version: 6.00 Build 0)  -->
<svg version="1.1"
	 id="svg8" inkscape:version="0.92.2 5c3e80d, 2017-08-06" sodipodi:docname="background2.svg" xmlns:cc="http://creativecommons.org/ns#" xmlns:dc="http://purl.org/dc/elements/1.1/" xmlns:inkscape="http://www.inkscape.org/namespaces/inkscape" xmlns:rdf="http://www.w3.org/1999/02/22-rdf-syntax-ns#" xmlns:sodipodi="http://sodipodi.sourceforge.net/DTD/sodipodi-0.dtd" xmlns:svg="http://www.w3.org/2000/svg"
	 xmlns="http://www.w3.org/2000/svg" xmlns:xlink="http://www.w3.org/1999/xlink" x="0px" y="0px" viewBox="0 0 1122.5 725"
	 style="enable-background:new 0 0 1122.5 725;" xml:space="preserve">
<style type="text/css">
	.st0{fill:#D2D2D8;}
	.st1{fill:#011638;}
	.st2{opacity:0.73;fill:#FFFFFF;fill-opacity:0.8352;enable-background:new    ;}
	.st3{fill:#030304;}
	.st4{fill:#738798;}
	.st5{fill:#FEFFFF;}
	.st6{fill:#A3AFBB;}
	.st7{fill:#E9EAE9;}
	.st8{fill:#FFFFFF;}
</style>
<path class="st0" d="M189.3,289.6c0.1,0.7,0.1,1.2-0.7,1.7c-2,1.1-4.3,1.2-6.4,1.7c-2.8,0.6-5.6,1.2-8.4,1.5
	c-3.2,0.3-6.4,0.8-9.5,1.2c-4.1,0.5-8.2-0.1-12.3,0.7c-0.9,0.2-2,0.2-2.9,0c-2.1-0.6-4.3-0.5-6.4-0.6c-3.7-0.3-7.3-1-11-1.3
	c-4-0.3-7.6-1.8-11.3-3c-3.8-1.2-7.6-2.6-11-4.6c-4.6-2.7-9.5-5.1-13.4-8.8c-0.4-0.4-0.9-0.6-1.5-0.6c2.5,4.9,5.9,9.2,9.5,13.3
	c7.9,8.9,17.5,15.4,28.8,19.5c8.2,2.9,16.6,4.4,25.3,4.8c10.7,0.5,21.3-0.5,31.8-2.5c5.8-1.1,11.5-2.5,17.2-4c0-1-0.7-1.4-1.3-1.9
	c-5.9-5-11.2-10.6-15.9-16.8C189.6,289.7,189.4,289.6,189.3,289.6z"/>
<sodipodi:namedview  bordercolor="#666666" borderlayer="false" borderopacity="1.0" id="base" inkscape:current-layer="layer1" inkscape:cx="343.19538" inkscape:cy="66.412653" inkscape:document-units="mm" inkscape:pageopacity="0.0" inkscape:pageshadow="2" inkscape:showpageshadow="false" inkscape:window-height="975" inkscape:window-maximized="0" inkscape:window-width="1636" inkscape:window-x="40" inkscape:window-y="0" inkscape:zoom="2.9714022" pagecolor="#ffffff" showgrid="false" units="px">
	</sodipodi:namedview>
<g id="g1063" transform="translate(0.23809558,19.453749)">
	<path id="rect843" inkscape:connector-curvature="0" sodipodi:nodetypes="ccaasscccssssccc" class="st1" d="M-0.9,358.1l367.2,0
		c40,0.2,46.8,0.2,68.5-7.3c18.1-6.2,32.9-19.6,48.6-30.4c20-13.7,34.7-28.8,58.4-43.7c23.4-14.8,42-32.9,75.3-38.1
		c34.9-5.5,244.6-0.7,506.7-2.4c0,0-0.4,300.8-0.4,444.1c-28.5,1.1-281.3,0.3-281.3,0.3c-67.1,0.2-80.4-2-117-14.7
		c-33-11.4-65.5-30.6-80.2-36.9c-34.1-14.7-53.6-27.1-79.7-33.6c-20.5-5-50.6-6.5-77.5-7.4c-29.2-1-112.5-1.7-148.3-1.2
		c-129,1.2-212.1,0.7-340.1,0.7L-0.9,358.1z"/>
</g>
<g id="g1773" transform="matrix(0.48618733,0,0,0.48618733,51.904615,87.602137)">
	<ellipse id="path1837" class="st2" cx="677.5" cy="165.8" rx="75.9" ry="76.4"/>
	<g id="layer1-1" transform="matrix(0.26771354,0,0,0.26771354,72.983211,89.739449)" inkscape:label="Layer 1">
	</g>
</g>
<g id="text1845" transform="matrix(1.0502936,0,0,1.0502936,158.13739,-27.33701)">
	<path id="path1890" inkscape:connector-curvature="0" d="M447.8,199.6c0,15.7,10.9,26.7,26.4,26.7c12.5,0,21.9-6.9,24.9-18.3h-14
		c-2.2,4.5-6.1,6.7-11,6.7c-7.8,0-13.2-5.8-13.2-15.1s5.4-15.1,13.2-15.1c4.9,0,8.8,2.2,11,6.7h14c-3-11.3-12.4-18.4-24.9-18.4
		C458.7,172.9,447.8,183.9,447.8,199.6L447.8,199.6z"/>
	<path id="path1892" inkscape:connector-curvature="0" d="M528,193.9c4.3,0,7.8,2.6,7.8,7.2h-16C520.6,196.4,523.8,193.9,528,193.9z
		 M547.9,212.1h-13.6c-1,2.2-3.1,4-6.6,4c-4.1,0-7.5-2.5-7.9-8h28.9c0.1-1.3,0.2-2.5,0.2-3.7c0-12.7-8.6-20.8-20.8-20.8
		c-12.4,0-21.1,8.2-21.1,21.4c0,13.2,8.8,21.4,21.1,21.4C538.5,226.5,545.9,220.2,547.9,212.1L547.9,212.1z"/>
	<path id="path1894" inkscape:connector-curvature="0" d="M571.1,206.5c0-7.2,3.5-9.3,9.6-9.3h3.5v-13.5c-5.6,0-10.2,3-13.1,7.4
		v-6.9h-12.8v41.7h12.8V206.5z"/>
	<path id="path1896" inkscape:connector-curvature="0" d="M605.8,190.1v-19.5H593v55.3h12.8v-5.8c2.3,3.7,6.7,6.4,12.8,6.4
		c10.2,0,18.4-8.4,18.4-21.5c0-13.1-8.1-21.4-18.4-21.4C612.7,183.6,608.1,186.4,605.8,190.1L605.8,190.1z M624,205
		c0,6.6-4.3,10.4-9.2,10.4c-4.8,0-9.1-3.7-9.1-10.3c0-6.6,4.3-10.3,9.1-10.3C619.7,194.7,624,198.3,624,205z"/>
	<path id="path1898" inkscape:connector-curvature="0" d="M664.9,193.9c4.3,0,7.8,2.6,7.8,7.2h-16
		C657.5,196.4,660.7,193.9,664.9,193.9z M684.9,212.1h-13.6c-1,2.2-3.1,4-6.6,4c-4.1,0-7.5-2.5-7.9-8h28.9c0.1-1.3,0.2-2.5,0.2-3.7
		c0-12.7-8.6-20.8-20.8-20.8c-12.4,0-21.1,8.2-21.1,21.4c0,13.2,8.8,21.4,21.1,21.4C675.4,226.5,682.8,220.2,684.9,212.1
		L684.9,212.1z"/>
	<path id="path1900" inkscape:connector-curvature="0" d="M708,206.5c0-7.2,3.5-9.3,9.6-9.3h3.5v-13.5c-5.6,0-10.2,3-13.1,7.4v-6.9
		h-12.8v41.7H708V206.5z"/>
	<path id="path1902" inkscape:connector-curvature="0" d="M771.1,184.2h-12.8v22.6c0,5.7-3.1,8.8-8.1,8.8c-4.8,0-8-3.1-8-8.8v-22.6
		h-12.7v24.3c0,11.1,6.5,17.8,16.1,17.8c5.6,0,10.1-2.5,12.6-6.1v5.7h12.8V184.2z"/>
	<path id="path1904" inkscape:connector-curvature="0" d="M816.9,213.8c-0.2-15.5-22.8-10.8-22.8-17.5c0-2,1.6-3.2,4.6-3.2
		c3.6,0,5.7,1.9,6.1,4.7h11.8c-0.8-8.2-6.8-14.2-17.5-14.2c-10.9,0-16.9,5.8-16.9,12.9c0,15.3,22.7,10.5,22.7,17.2
		c0,1.9-1.7,3.4-5,3.4c-3.5,0-6.1-1.9-6.4-4.9h-12.6c0.6,8.1,8.1,14.3,19.2,14.3C810.4,226.5,816.9,221,816.9,213.8L816.9,213.8z"/>
</g>
<g id="text1592" transform="translate(0.89043257,2.2260813)">
	<path id="path2136" inkscape:connector-curvature="0" d="M197.3,687.5h3.6v-27.9h-3.6v12.2h-14.2v-12.2h-3.6v27.9h3.6v-12.6h14.2
		V687.5z"/>
	<path id="path2138" inkscape:connector-curvature="0" d="M227.9,676.5c0-6.9-4.8-11.3-11.1-11.3c-6.2,0-11.1,4.4-11.1,11.3
		c0,7,4.7,11.4,10.9,11.4C222.9,687.9,227.9,683.5,227.9,676.5z M209.4,676.5c0-5.5,3.5-8.1,7.3-8.1c3.8,0,7.4,2.6,7.4,8.1
		c0,5.6-3.7,8.2-7.5,8.2C212.8,684.7,209.4,682.1,209.4,676.5z"/>
	<path id="path2140" inkscape:connector-curvature="0" d="M237,687.5h3.8l5.3-17.4l5.3,17.4h3.8l6.8-21.9h-3.6l-5,18.4l-5.3-18.4
		h-3.7l-5.4,18.4l-5-18.4h-3.7L237,687.5z"/>
	<path id="path2142" inkscape:connector-curvature="0" d="M276.2,687.5h3.6v-27.9h-3.6V687.5z"/>
	<path id="path2144" inkscape:connector-curvature="0" d="M286.9,681.5c0,4.4,2.2,6,6.1,6h3.3v-3.1h-2.7c-2.2,0-3-0.8-3-2.9v-12.9
		h5.7v-3h-5.7v-5.5h-3.6v5.5H284v3h2.8L286.9,681.5z"/>
	<path id="path2146" inkscape:connector-curvature="0" d="M316.9,687.5l4,0l6.7-22.4l6.5,22.4h4.1l8.1-27.9h-3.9l-6.1,23.6
		l-6.4-23.6h-4.1l-6.7,23.6l-6.1-23.6h-3.9L316.9,687.5z"/>
	<path id="path2148" inkscape:connector-curvature="0" d="M371.2,676.5c0-6.9-4.8-11.3-11.1-11.3c-6.2,0-11.1,4.4-11.1,11.3
		c0,7,4.7,11.4,10.9,11.4C366.2,687.9,371.2,683.5,371.2,676.5z M352.7,676.5c0-5.5,3.5-8.1,7.3-8.1c3.8,0,7.4,2.6,7.4,8.1
		c0,5.6-3.7,8.2-7.5,8.2C356.1,684.7,352.7,682.1,352.7,676.5z"/>
	<path id="path2150" inkscape:connector-curvature="0" d="M379.6,675.6c0-5.1,2.6-6.6,6.1-6.6h1v-3.8c-3.5,0-5.8,1.5-7.1,4v-3.6H376
		v21.9h3.6V675.6z"/>
	<path id="path2152" inkscape:connector-curvature="0" d="M390.9,687.5h3.6v-9.7l8.6,9.7h5l-10.4-11l10.3-10.9H403l-8.4,9.7v-17.4
		h-3.6V687.5z"/>
	<path id="path2154" inkscape:connector-curvature="0" d="M427.3,681.5c-0.2-7.8-12.9-5-12.9-10.2c0-1.8,1.6-3,4.3-3
		c2.9,0,4.6,1.6,4.8,3.8h3.6c-0.2-4.3-3.4-6.9-8.3-6.9c-4.9,0-8,2.8-8,6.1c0,8.2,13,5.3,13,10.2c0,1.8-1.6,3.2-4.5,3.2
		c-3.1,0-5-1.6-5.2-3.7h-3.8c0.2,4,3.8,6.8,9,6.8C424.1,687.9,427.3,685.1,427.3,681.5z"/>
</g>
<path class="st3" d="M187.4,442.5c0.8-0.8,1.7-1.7,2.5-2.5c2.7-1.8,3-3,1.6-5.9c-1-2-2-4-3-6c-5.1-10.4-8.8-21.3-10-32.9
	c-0.6-6-0.4-12.1,0.8-18c1.4-7.1,4.1-13.7,7.8-20c0.7-1.1,1.6-2.2,1.9-3.5c0.1,0,0.2-0.1,0.2-0.3c0.7-0.6,1.2-1.3,1.4-2.2
	c0.2,0,0.2-0.1,0.2-0.3c0.9-0.7,1.4-1.6,1.9-2.6c0.1,0,0.2-0.1,0.2-0.3c1-0.8,1.7-1.8,2.3-3c0.2-0.2,0.4-0.5,0.6-0.7
	c1.2-0.9,2-2.1,2.7-3.4c0.2-0.2,0.4-0.5,0.6-0.7c1-0.8,1.8-1.8,2.3-3c0.5-0.2,0.7-0.7,0.9-1.1c1-0.8,1.8-1.8,2.3-3
	c0.1,0,0.2-0.1,0.2-0.2c1-0.8,1.7-1.8,2.2-3c0.2,0,0.2-0.1,0.2-0.3c2.2-2.5,3.6-5.4,4.7-8.4c0.2-0.7,1-1.5,0.4-2.1
	c-0.6-0.6-1.6,0-2.3,0.2c-3.6,1.2-7.3,2.1-11,2.9c-7.1,1.6-14.2,2.9-21.4,3.7c-9.8,1-19.6,1.2-29.4-0.1c-7.9-1-15.6-2.9-22.9-5.9
	c-2.8-1.1-5.6-2.4-8.2-4c-2.6-1.6-4-4.6-2-8.3c1.2-2.3,4.4-3.7,7.5-2.3c0.7,0.3,1.5,0.7,2.2,1c7.2,3.7,14.8,6,22.8,7.2
	c9.4,1.5,18.8,1.4,28.2,0.4c7.6-0.7,15.2-2.2,22.6-4c2.2-0.5,4.4-1.2,6.4-1.7c0.1-0.5-0.1-0.7-0.3-0.9c-0.3-0.3-0.5-0.6-0.8-0.9
	c-5.4-4.6-10.3-9.7-14.7-15.2c0-0.2-0.1-0.4-0.3-0.5c0,0,0,0,0,0c0-0.3-0.2-0.6-0.5-0.7c-0.2-0.3-0.5-0.6-0.7-0.9
	c0-0.4-0.2-0.5-0.5-0.7l-0.1-0.1c0-0.2-0.1-0.4-0.3-0.4c-0.1-0.2-0.2-0.3-0.3-0.5c0-0.4-0.2-0.6-0.5-0.7l0,0c0-0.2-0.1-0.4-0.3-0.4
	c-0.2-0.3-0.3-0.5-0.5-0.8c0-0.2-0.1-0.4-0.3-0.4l0,0c0-0.3-0.1-0.4-0.3-0.5c-0.3-0.5-0.6-1-1-1.5c0-0.2-0.1-0.4-0.3-0.4l0,0
	c0-0.3-0.2-0.6-0.5-0.7l-0.1-0.1c0-0.2-0.1-0.4-0.3-0.4c-0.2-0.4-0.5-0.8-0.7-1.3c0-0.3-0.1-0.5-0.3-0.6
	c-5.2-8.9-9.3-18.2-12.1-28.1c-0.4-1.5-0.4-1.5-2.1-1.5c-6.1-0.1-12.2-0.4-18.2-1.6c-7.6-1.4-14.8-3.7-21.4-8
	c-6.8-4.5-11.7-10.4-14.5-18.1c-0.8-2.2-1.3-4.6-1.7-6.9c-0.3-1.5-0.3-1.5-1.8-1.5c-1.7,0-3.4,0-5.1,0c-2.7,0-2.3-0.1-2.2,2.3
	c0.3,7.1-2.3,13.1-7.4,18c-3.1,3-6.7,5.1-10.9,5.9c-0.8,0.2-1.3,0.4-1.1,1.3c0.4,1.7,0.7,3.3,1.1,5c0.2,0.8,0.8,1,1.6,1
	c2.3-0.1,4.6-0.5,6.6-1.7c1.3-0.8,2.3-1.9,3.6-2.7c3.1-2.2,7.4-1.1,9,2.2c1.2,2.4,0.7,5.2-1.4,7.3c-2.5,2.5-5.5,4.4-8.8,5.6
	c-1.7,0.6-3.5,0.9-5.3,1.3c-0.9,0.2-1.3,0.4-0.9,1.5c0.8,2.2,1.7,4.4,2.6,6.6c1.8,4.2,3.8,8.2,6.4,12c0.2,0.4,0.4,0.9,0.6,1.3
	c2.2,3.5,4.7,6.8,7.4,9.9c0.7,0.8,1.5,1.6,1.9,2.6c1.2,2.9,0.3,5.2-1.7,7.4c-0.3,0.2-0.5,0.4-0.8,0.6c-0.3-0.1-0.6-0.1-0.8,0.3
	c-0.1,0.1-0.3,0.1-0.4,0.2c-1.7,0.3-3.4-0.2-5-0.5c-1.6-1.2-2.7-2.8-4.1-4.2c-0.1-0.7-0.4-1.1-1.1-1.4c0-0.1-0.1-0.2-0.2-0.3
	c-0.1-0.7-0.4-1.1-1.1-1.4c-0.2-0.2-0.3-0.5-0.5-0.7c-0.4-1-1-1.9-1.9-2.6c0-0.1-0.1-0.2-0.2-0.2c-0.2-0.9-0.7-1.7-1.4-2.2
	c0-0.1-0.1-0.2-0.2-0.2c0-0.8-0.4-1.4-1.1-1.8c0-0.1,0-0.2-0.1-0.3c0-0.7-0.5-1.1-0.8-1.6c-3.5-6.1-6.6-12.4-8.9-19.1
	c-1.3-3.7-2.5-7.4-3.7-11.2c-1.7-5.4-2.8-11-3.6-16.6c-0.4-3.1-0.4-6.2-1.1-9.3c-1.1-4.8-0.1-9.3,1.8-13.6c0.2-0.4,0.4-0.7,0.3-1.2
	c0.1-0.1,0.2-0.2,0.2-0.3c0.7-0.5,1.2-1.3,1.4-2.2c0.1-0.1,0.2-0.2,0.2-0.3c1.5-1.2,2.8-2.6,4-4.1c0.2-0.2,0.5-0.4,0.7-0.6
	c0.2,0,0.4,0,0.6-0.1c4.3-2.9,9.1-4,14.2-3.9c5.6,0.1,11.2,0,16.9,0c2,0,2,0,2.1-2.1c0.2-2.8,0.4-5.5,0.9-8.3
	c0.8-4.5,2.1-8.9,4-13.1c1.1-2.5,2.4-5,3.6-7.5c0.5-0.4,0.8-1,0.8-1.6c0.1,0,0.2-0.1,0.2-0.2c1.6-1.8,2.9-3.9,4.3-5.9
	c0.2-0.2,0.4-0.5,0.6-0.7c0.8-0.5,1.5-1.3,1.9-2.2c0.4-0.3,0.8-0.6,1-1.1c1-0.6,1.8-1.5,2.5-2.5c0.3-0.1,0.5-0.3,0.7-0.6
	c1.2-0.6,2.1-1.6,3-2.7c0.3-0.1,0.5-0.3,0.7-0.6c1.7-1,3.2-2.1,4.6-3.5c0.3,0,0.6-0.2,0.7-0.5c0.3,0.1,0.4,0,0.5-0.3
	c0.3,0,0.5-0.3,0.7-0.5c0.8,0,1.3-0.5,1.7-1.1c0.2,0,0.3,0,0.3-0.2c2.6-1.4,5.1-2.8,7.7-4.1c1.4-0.6,1.8-1.5,1.9-3
	c0.2-4.7,0.8-9.4,1.9-14c2-7.8,5.2-14.9,10.1-21.3c0.3-0.4,0.7-0.7,0.7-1.2c0.4-0.2,0.7-0.5,0.9-0.9c2.2-1.4,4.3-3,6.8-3.8
	c1.3-0.4,2.7-0.3,3.8-1.2c0.6,0.1,1.2,0.1,1.7-0.1c5.7,0.5,11.2,1.6,16.7,3.3c6.8,2,13.1,4.9,19.1,8.6c1.5,1,2.9,2.2,4.5,3
	c0.1,0.3,0.3,0.5,0.7,0.5c0.6,0.8,1.3,1.5,2.2,1.8c0.1,0.3,0.4,0.5,0.7,0.6c0.8,1.1,1.8,2,3,2.7l0,0c0,0.5,0.3,0.7,0.8,0.8l0,0
	c0.4,0.9,1.1,1.6,1.9,2.1l0,0c0.7,0.7,1.3,0.1,2-0.2c4.7-2.1,9.5-3.9,14.4-5.3c5.3-1.5,10.6-2.7,16.1-3.4c5.7-0.8,11.3-1.2,17-1.1
	c6.7,0.1,13.4,0.8,20,2.1c5.5,1.1,10.9,2.6,16.2,4.5c2.9,1,5.7,2.2,8.4,3.5c0.7,0.3,1.6,0.7,2-0.5c1.7-1.7,3.3-3.3,5-5
	c0.9-0.4,1.6-1,2.2-1.8c0.3-0.1,0.5-0.3,0.7-0.6c0.6,0,0.8-0.4,1.2-0.7c6.4-4.8,13.4-8.4,20.9-10.9c5.1-1.7,10.3-3,15.6-3.7
	c7-0.9,13.1,1.2,17.5,6.8c4.4,5.5,7.4,11.9,9.3,18.7c0.5,1.9,0.7,3.9,1.6,5.6c-0.1,0.3,0,0.6,0.1,0.8c-0.1,1.4,0.3,2.8,0.7,4.1
	c-0.1,0.6-0.1,1.1,0.1,1.6c-0.3,1.7,0.1,3.4,0.1,5.1c0,1,0.6,1.5,1.5,1.9c3.9,2,7.7,4.2,11.4,6.7c1.4,1,2.7,2.2,4.3,3
	c0.2,0.3,0.4,0.5,0.7,0.6c0.3,0.5,0.7,1,1.3,1.1c0.1,0.3,0.3,0.5,0.6,0.6c2.3,2.3,4.7,4.6,7,7c0.1,0.3,0.3,0.5,0.6,0.7
	c0.1,0.6,0.6,1,1.1,1.3l0,0c0,0.4,0.4,0.7,0.6,1c2.5,3.2,4.6,6.6,6.6,10.2c0,0.1,0,0.2,0.1,0.2c0.2,0.5,0.3,1,0.6,1.5
	c1,1.6,1.3,3.5,2.4,5c0,0.3,0,0.6,0.2,0.8c-0.2,0.7,0.2,1.2,0.6,1.6c-0.1,0.3,0,0.6,0.2,0.8c0.4,1.8,0.6,3.7,1.5,5.3
	c-0.1,0.3,0,0.6,0.1,0.8c-0.2,1.4,0.3,2.8,0.7,4.1c-0.1,0.4-0.1,0.8,0.1,1.2c-0.3,1.7,0.2,3.4,0.2,5c0,0.7,0.5,0.9,1.1,1
	c0.5,0,0.9,0,1.4,0c6.1,0,12.2,0,18.3,0c3.6,0,6.9,0.9,10.1,2.5c0.7,0.4,1.3,1,2.1,1.1c0,0.2,0.1,0.2,0.3,0.2c2,1.8,3.9,3.7,5.7,5.8
	c0,0.2,0,0.2,0.2,0.3c0.9,2,1.9,4.1,2.8,6.1c-0.1,0.3,0,0.6,0.1,0.8c-0.4,1.1,0.6,1.9,0.5,2.9c0,1.4,0,2.7,0,4.1
	c-0.6,1.6-1.1,3.2-0.6,5c0,0.4-0.1,0.7-0.1,1.1c-0.4,1.6-1.1,3.2-0.7,5c0,0.4-0.1,0.7-0.1,1.1c-0.5,1.2-1.1,2.4-0.7,3.8
	c0,0.2-0.1,0.5-0.1,0.7c-0.5,1.1-1,2.1-0.7,3.4c0,0.2-0.1,0.5-0.1,0.7c-0.5,0.5-0.6,1.2-0.8,1.8c-1,5-2.5,9.8-4.1,14.6
	c-2.4,7-5.3,13.7-9,20.1c-0.9,1.5-2,2.9-2.4,4.6c-0.3,0.5-0.7,1-1,1.5c-0.8,0.2-0.9,0.8-1,1.4c-0.1,0.1-0.1,0.2-0.2,0.2
	c-0.5,0.1-0.7,0.5-0.7,1c-0.1,0.1-0.1,0.2-0.2,0.2c-1.4,1.4-2.8,2.7-3.5,4.6c-0.2,0.2-0.3,0.5-0.5,0.7c-0.5,0.3-1,0.6-1.1,1.3
	c-0.3,0.1-0.5,0.3-0.6,0.6c-2.3,2.1-4.5,4.3-6.6,6.6c-0.4,0.2-0.8,0.5-1.1,1c-1.5,0.9-2.9,1.9-4,3.2c0,0-0.1,0.1-0.1,0.1
	c-1.5,0.6-2.6,1.7-3.9,2.5c-6.8,4.3-13.9,7.8-21.7,10c-4.8,1.4-9.6,2.4-14.5,3.1c-5,0.8-10,0.9-15,0.9c-4.9,0-9.9-0.1-14.8-0.8
	c-4.2-0.6-8.3-1.1-12.5-1.8c-4.5-0.8-8.9-1.8-13.3-2.9c-2.8-0.7-5.5-1.5-8.2-2.2c-0.9-0.2-1.2,0.1-1,0.9c1.3,3.9,3,7.5,5.8,10.6
	c0,0.2,0,0.2,0.2,0.3c0.4,1.2,1.3,2.2,2.2,3c0,0.1,0,0.2,0.2,0.2c0.2,0.8,0.7,1.4,1.4,1.8c0.1,0.3,0.3,0.5,0.6,0.6
	c0.4,1,1.2,1.8,1.8,2.6c3.7,4.7,7.6,9.3,10.8,14.4c3.7,5.9,6.9,12.1,8.8,18.8c0.5,1.7,0.6,3.6,1.5,5.3c0,0.3,0.1,0.5,0.1,0.8
	c-0.1,1.8,0.4,3.6,0.7,5.3c-0.1,1.1-0.1,2.2,0.1,3.3c-0.3,1.2-0.3,2.5,0,3.7c-0.2,0.9-0.2,1.9-0.1,2.8c-0.4,1.9-0.9,3.8-0.7,5.7
	c-0.2,0.4-0.2,0.8-0.1,1.2c-0.7,1.3-0.7,2.9-1.1,4.3c-1.7,6.8-3.9,13.3-6.8,19.7c-1.5,3.4-3.2,6.7-4.9,10c-1,1.9-0.8,3.1,0.7,4.4
	l0.1-0.1c0,0-0.1,0.1-0.1,0.1c0.1,0.5,0.4,0.7,0.8,0.8c0,0,0,0,0,0c0.7,1,1.5,1.8,2.5,2.4c0,0,0,0,0,0c0.1,0.4,0.3,0.7,0.8,0.8
	c0,0,0,0,0,0c0.9,1.7,2.4,3.1,3.4,4.8c4.9,7.4,2.2,16.8-4.4,21.2c-2.9,2-6.2,2.6-9.7,2.6c-17.3,0-34.6,0-51.9,0c-35,0-70,0-105.1,0
	c-1.4,0-2.8-0.2-4.2-0.4c-1.9-0.2-3.5-1.4-5.3-2c0,0-0.1,0-0.1,0c-0.5-0.8-1.2-1.2-2-1.6c-0.2-0.4-0.5-0.7-0.9-0.9
	c-0.2-0.8-0.9-1.3-1.3-2c-3-4.7-3.5-9.7-1.3-14.9c0.8-1.7,2.1-3.1,3-4.8c0.1,0,0.2-0.1,0.2-0.3C186.4,444.2,186.9,443.4,187.4,442.5
	z M460.4,236.8c0-0.2-0.2-0.3-0.4-0.3c-2.8-2.4-5.4-5.1-7.1-8.5c-1.9-3.8-2.9-7.9-2.6-12.2c0.1-1.6,0-1.6-1.5-1.6
	c-1.7,0-3.4-0.1-5.1-0.1c-2.2,0-2.2,0-2.7,2.2c-0.1,0.4-0.2,0.8-0.2,1.2c-2.7,11.9-9.8,20.4-20.5,25.8c-6.1,3.1-12.7,4.8-19.4,5.8
	c-4.7,0.7-9.4,1-14.2,1.2c-0.7-0.2-1.5-0.1-2.2-0.1c-0.5,0-0.9,0.2-1,0.8c-0.9,3.2-1.9,6.3-2.9,9.5c-0.9,2.7-2.4,4.9-5.3,5.7
	c-0.8,0-1.5-0.1-2.3-0.1c-0.1-0.1-0.2-0.2-0.3-0.2c-3.7-1.1-5.4-4.4-4.1-8.1c1.3-3.7,2.6-7.4,3.5-11.3c1.3-5.4,2.1-10.9,2.6-16.4
	c0.9-10,0.2-19.8-2-29.5c-4-17.7-12.3-33.3-24.8-46.4c-8-8.4-17.1-15.3-27.5-20.4c-11-5.5-22.7-8.8-35-10
	c-9.2-0.9-18.3-0.4-27.4,1.2c-6.5,1.2-12.9,3.1-19.1,5.7c-7,2.9-13.5,6.6-19.7,11c-7.9,5.7-14.8,12.3-20.8,20
	c-6.5,8.2-11.6,17.2-15.3,27c-3.5,9.2-5.5,18.8-6,28.8c-0.5,8.7,0.3,17.4,2,25.9c1.8,8.8,5,17.2,9.2,25.1c4,7.7,9.1,14.6,14.9,21
	c0.2,0.2,0.4,0.5,1,0.2c-0.4-2.2-0.8-4.6-1.1-6.9c-0.9-9.7,0.5-19,5.1-27.6c3.9-7.4,9.6-13.3,16.7-17.7c1.1-0.7,2.2-1.4,3.3-2.1
	c1.9-1.3,3.2-3.1,3.9-5.3c0.5-1.5,0.8-3,1.3-4.5c2.8-8.5,7.9-15.1,15.5-19.8c6.8-4.2,14.3-6.1,22.2-6.7c8.5-0.7,16.8,0.2,24.8,3.2
	c7.2,2.7,13.1,7,17.6,13.3c2.7,3.9,4.6,8.1,5.8,12.7c0.3,1.2,0.6,2.5,1.3,3.6c1.2,2.1,3,3.5,5,4.7c4.2,2.4,8,5.4,11.3,8.9
	c6.4,6.8,10,14.9,11.5,24c1,6.5,0.8,13-0.7,19.4c-0.1,0.4-0.2,0.8,0.2,1.1c0.5,0.1,0.7-0.3,1-0.6c3-3.2,5.8-6.6,8.3-10.3
	c1.9-2.9,5.3-4.6,9.1-2.6c0.1,0.2,0.2,0.3,0.4,0.4c2.7,1.9,2.8,6.2,0.9,8.6c-1.2,1.5-2.3,3.2-3.4,4.8c-0.1,0.1-0.3,0.1-0.3,0.2
	c-4.5,6-9.7,11.4-15.4,16.2c-0.5,0.5-1.3,0.9-1.3,1.8c5.5,1.4,11,2.8,16.6,3.8c10.2,1.9,20.4,2.9,30.8,2.4
	c8.4-0.4,16.6-1.8,24.5-4.6c10.9-3.9,20.2-10.2,27.9-18.9c3.5-4,6.8-8.1,9.2-12.8l0.1-0.1c0.2,0,0.3-0.1,0.2-0.3
	c0.5-0.8,1.1-1.6,1.4-2.5c0.2,0,0.3-0.2,0.2-0.4c0.2-0.4,0.4-0.8,0.6-1.3c0.2,0,0.3-0.2,0.2-0.4c2.2-4,3.8-8.4,5.6-12.6
	c0.3-0.7,0.1-1-0.6-1.2c-0.6-0.1-1.2-0.3-1.8-0.4c-3.1-0.5-6-1.6-8.7-3.3c-1.9-1.2-3.7-2.5-5-4.4c-1.4-2-1.7-4.2-0.5-6.3
	c1.2-2.2,3.1-3.3,5.7-3.3c1.1,0,2.1,0.5,3.1,0.9c0.8,0.7,1.6,1.5,2.4,2.1c2.3,1.8,5,2.6,8,2.6c0.7,0,1.4-0.1,1.6-1
	c0.4-1.7,0.7-3.3,1.1-5c0.1-0.7-0.1-1.1-0.9-1.3c-2.9-0.6-5.5-1.8-8-3.2l0,0C460.8,236.9,460.7,236.8,460.4,236.8L460.4,236.8z
	 M314.2,313.5c0.3,0,0.5,0,0.8-0.2c3.4-1.6,6.7-3.3,10-5c2.5-1.3,4.3-3,5.3-5.8c1.2-3.3,2.8-6.4,3.6-9.9c0.6-1,0.8-2.2,1.1-3.3
	c1.6-6,2.5-12.1,1.6-18.3c-1.1-7.8-4.4-14.5-10.5-19.6c-2.3-1.9-4.7-3.5-7.2-4.9c-5.9-3.3-9.6-8.3-11.2-14.8
	c-0.4-1.6-0.8-3.3-1.5-4.9c-1.7-3.9-4.2-7.1-7.5-9.7c-1.4-1.1-1.8-1.1-2.7,0.4c-0.7,1.1-1.5,2.1-2.4,3.1
	c-10,11.1-26.9,10.5-36.1-1.3c-0.6-0.7-1.1-1.6-1.6-2.4c-0.4-0.6-0.9-0.8-1.5-0.4c-1.2,0.7-2.3,1.6-3.3,2.6
	c-3.4,3.5-5.5,7.7-6.6,12.4c-1.3,5.8-4.6,10.2-9.4,13.6c-2.9,2-6,3.7-8.7,6.1c-6.8,6.1-10.8,13.5-11.2,22.7
	c-0.2,4.6,0.3,9.1,1.3,13.5c1.4,6,3.6,11.6,6.3,17.2c0.4,0.8,0.8,1.6,1.7,2c2.2,1.2,4.4,2.5,6.6,3.6c7.3,3.7,14.9,6.4,22.9,8.3
	c7.4,1.8,15,2.6,22.6,2.6c9,0,17.9-1.3,26.5-3.8C306.8,316.4,310.6,315.2,314.2,313.5z M216.7,337.8c-2.4,3-4.8,6.1-7.2,9.1
	c-3.7,4.7-7.5,9.3-10.7,14.3c-2.9,4.5-5.3,9.3-6.8,14.5c-2,6.8-2.1,13.6-1.2,20.6c1,7.3,3.3,14.2,6.1,21c1.8,4.2,4,8.2,5.9,12.3
	c3.1,6.4,1.8,13.3-3.3,18.3c-1,1-2,1.9-2.9,2.8c-1.1,1.2-2.3,2.3-3.1,3.8c-1.1,2.1-0.2,4.2,2.1,4.7c0.8,0.2,1.8,0.2,2.6,0.2
	c7.1,0,14.3,0,21.4,0c0.9,0,1.8,0,2.6,0c1.4,0,1.4-0.1,1.4-1.5c0-1.8-0.1-3.5,0.4-5.3c1-3.7,3.1-6.6,5.6-9.3
	c1.4-1.5,2.9-2.9,4.3-4.3c1.2-1.2,1.3-2.6,0.7-4.1c-0.3-0.6-0.6-1.2-0.9-1.8c-2.9-5.3-5.3-10.8-7.5-16.5c-2.2-5.9-3.8-11.9-4.7-18.1
	c-0.5-3.6-0.8-7.2-0.7-10.8c0.1-3.3,2.6-5.8,5.8-5.9c3.3-0.1,5.9,2,6.3,5.4c0.2,1.3,0.2,2.7,0.3,4.1c0.1,1.5,0.1,3,0.3,4.5
	c1.2,8,3.6,15.6,6.8,22.9c1.5,3.5,3.3,6.9,5,10.2c2.2,4.1,2.5,8.4,1,12.8c-1,2.9-2.9,5.2-5.2,7.2c-1.8,1.5-3.1,3.2-4.4,5
	c-1.9,2.7-0.7,5.1,2.6,5.4c0.3,0,0.7,0,1,0c5.9,0,11.8,0,17.7,0c3.1,0,6.1,0,9.2,0c2.3,0,2.3,0,2.3-2.2c0-0.1,0-0.1,0-0.2
	c0-22.6,0-45.2,0-67.8c0-1,0-1.9,0.3-2.8c0.8-2.8,3.4-4.6,6.3-4.4c3,0.2,5.2,2.2,5.6,5.2c0.1,0.8,0.1,1.6,0.1,2.4
	c0,21.9,0,43.9,0,65.8c0,0.9,0,1.8,0,2.6c0,0.9,0.3,1.4,1.3,1.4c0.3,0,0.7,0,1,0c8.9,0,17.8,0,26.7,0c1,0,2,0,3-0.5
	c1.5-0.7,2.2-2.4,1.5-3.9c-0.3-0.7-0.7-1.3-1.2-1.9c-1.3-1.7-2.8-3.3-4.4-4.8c-4.9-4.6-6.8-10.2-4.7-16.8c0.7-2.1,1.8-3.9,2.8-5.9
	c3.5-6.7,6.3-13.7,8.3-21c1.4-5.3,2.2-10.7,2.3-16.3c0-4.1,2.7-6.7,6.4-6.6c3.6,0.1,6,3,5.9,6.9c-0.1,2.9-0.3,5.8-0.6,8.7
	c-0.9,6.7-2.6,13.2-5,19.5c-2.1,5.7-4.7,11.3-7.6,16.7c-1.7,3.2-1.6,3.8,1.1,6.3c1.6,1.5,3.2,3.1,4.6,4.8c2,2.4,3.6,4.9,4.3,8
	c0.4,1.7,0.3,3.4,0.3,5.1c0,1.4,0,1.4,1.5,1.5c0.5,0,0.9,0.1,1.4,0.1c7.9,0,15.7,0,23.6,0c0.5,0,1,0,1.4-0.1
	c2.4-0.4,3.5-2.7,2.3-4.9c-0.5-0.9-1.1-1.7-1.8-2.5c-1.4-1.5-2.8-2.9-4.3-4.3c-5.1-4.8-5.9-12.8-3.1-18c0.9-1.6,1.7-3.3,2.5-4.9
	c5.4-10.8,9.7-22,10.1-34.3c0.2-4.5-0.2-8.9-1.3-13.3c-1.6-6.3-4.5-12-8.1-17.4c-2.9-4.4-6.2-8.4-9.4-12.5c-2.5-3.2-5-6.2-7.5-9.3
	c0-0.1,0-0.2,0-0.2c-3.1-4.8-6.1-9.6-7.5-15.2c-0.2-1-0.8-1.2-1.7-0.7c-0.3,0.2-0.6,0.3-0.9,0.4c-8.8,4.3-18,7.4-27.6,9.3
	c-4.4,0.9-8.8,1.6-13.3,1.8c-6.4,0.3-12.7,0.4-19.1-0.2c-7.4-0.7-14.7-2.2-21.9-4.3c-5.9-1.8-11.5-4-17-6.7
	c-1.6-0.8-1.8-0.7-2.3,1.2c-0.7,2.7-1.8,5.2-3.1,7.7C219.6,333.2,218.1,335.5,216.7,337.8z M122.3,205.8c0,1.9,0.2,4.9,0.8,8
	c1.1,6.6,4.1,12,9.7,15.9c4.2,3,8.8,4.8,13.7,6c5.8,1.4,11.6,2.1,17.5,2.1c1.7,0,1.7-0.1,1.6-1.7c-0.3-3.1-0.6-6.2-0.7-9.3
	c-0.3-8.3,0.1-16.5,1.8-24.7c0.2-0.9,0.3-1.8-0.1-2.8c-3.3-6.6-6-13.4-8.1-20.4c-2-6.5-3.7-13-4.7-19.7c-0.1-0.8-0.2-1.6-0.4-2.4
	c-0.1-0.7-0.5-0.9-1.2-0.5c-0.4,0.2-0.8,0.5-1.2,0.7c-3.7,2.2-7.1,4.7-10.3,7.6C128.5,175.1,122.3,188.5,122.3,205.8z M429.5,205.3
	c0.1-10.1-2-18.6-6.4-26.6c-3.4-6.1-7.9-11.2-13.1-15.7c-2.9-2.5-6.1-4.7-9.5-6.6c-1.4-0.8-1.7-0.6-2,1c-0.3,2.1-0.6,4.2-1,6.2
	c-2.5,11.9-6.2,23.3-11.4,34.3c-0.8,1.6-1,3.1-0.6,4.7c0.4,1.9,0.7,3.7,0.9,5.6c1.1,9.2,1.1,18.4,0,27.6c-0.2,1.8-0.2,1.8,1.7,1.8
	c3,0,6-0.2,8.9-0.6c6.2-0.8,12.2-2,17.8-4.8c7-3.5,11.9-8.8,13.7-16.7C429.3,211.9,429.5,208.1,429.5,205.3z M172,180.9
	c0.4-0.3,0.5-0.3,0.6-0.4c1.9-4.1,3.7-8.3,6-12.3c0.4-0.6,0.4-1.3,0.2-2c-1-3.9-1.9-7.8-2.4-11.7c-1-7-1.1-14,0.1-21.1
	c1.1-6.6,8.1-12.2,16.2-9.3c5.3,1.9,10.2,4.8,14.5,8.5c0.9,0.8,1.6,0.9,2.5,0.2c2.1-1.6,4.3-3,6.5-4.6c1.1-0.8,1.1-0.9,0.2-1.9
	c-2.2-2.2-4.5-4.1-7.1-5.8c-8.3-5.7-17.6-8.9-27.5-10.5c-3.6-0.6-6.4,0.5-8.6,3.6c-3.9,5.7-6.3,11.9-7.5,18.6
	c-1.2,6.9-1.2,13.8-0.4,20.7c0.9,8,2.8,15.7,5.3,23.4C171,177.9,171.5,179.3,172,180.9z M379.9,180.6c0.3-0.8,0.6-1.6,0.9-2.4
	c1.9-5.2,3.4-10.4,4.5-15.8c0.9-4.3,1.6-8.7,1.9-13.1c0.4-6.2,0.3-12.5-1.1-18.6c-1.3-6-3.5-11.5-6.9-16.6c-2.2-3.4-5.2-4.6-9.1-3.9
	c-8.9,1.6-17.4,4.2-25.1,9.1c-3.1,2-6,4.2-8.7,6.7c-1.7,1.6-1.7,1.7,0.3,3c1.8,1.2,3.6,2.4,5.3,3.7c1.6,1.2,1.8,1.2,3.3-0.2
	c4.3-3.8,9.2-6.6,14.5-8.4c7.5-2.6,14.5,2.5,15.6,8.6c0.6,3.3,1.1,6.6,1.1,9.9c0.1,7.8-1.1,15.4-3.1,22.9c-0.4,1.4-0.3,2.6,0.5,3.9
	c1.9,3.2,3.5,6.6,4.9,10.1C378.9,179.9,379.1,180.4,379.9,180.6z M188.3,152.5c0.7,0,0.9-0.2,1.1-0.5c2.7-3.2,5.4-6.4,8.6-9.2
	c0.7-0.6,0.5-1.2-0.1-1.7c-2.5-2-5.2-3.6-8.2-4.8c-1.1-0.4-1.5-0.2-1.6,1C187.5,142.3,187.6,147.4,188.3,152.5z M363.5,152.6
	c0.8-5.6,1-10.6,0.3-15.7c-0.1-1-0.9-0.9-1.5-0.6c-2.9,1.2-5.6,2.7-8,4.7c-1,0.8-1,1-0.1,1.9c2.2,2.3,4.3,4.5,6.5,6.7
	C361.5,150.4,362.3,151.3,363.5,152.6z M80.1,224.5c0,0.6,0,1.2,0,1.8c0.1,1.9,0.3,2.1,2,1.4c5.1-2,7.2-7.2,6.9-11.8
	c-0.1-1-0.5-1.2-1.7-1C82.9,215.7,80,219.5,80.1,224.5z M472,223.7c-0.1-4.5-3.5-8.2-7.7-9c-0.9-0.2-1.3,0.2-1.3,1
	c-0.1,2-0.1,4.1,0.8,6c1.3,2.9,3.5,5,6.5,6c0.9,0.3,1.3,0.1,1.4-0.8C471.8,225.9,471.9,224.8,472,223.7z"/>
<path class="st0" d="M480.9,211.9c1.2,0.8,1.8,2,2.3,3.3c0.3,0.7,0.4,1.3,1.2,1.2c0,0.3,0,0.5,0,0.8c-0.4,0.1-0.3,0.7-0.7,0.8
	C482.8,216,481.9,214,480.9,211.9z"/>
<path class="st4" d="M483.8,230.8c-0.5-1.7,0-3.4,0.6-5c0,1.6,0,3.3,0,4.9C484.3,230.7,484.1,230.8,483.8,230.8z"/>
<path class="st0" d="M484.5,221.7c0.1-1-1-1.8-0.5-2.9c0.2,0,0.4,0,0.5,0C484.5,219.8,484.5,220.8,484.5,221.7z"/>
<path class="st5" d="M484.5,218.9c-0.2,0-0.4,0-0.5,0c-0.2-0.2-0.2-0.5-0.1-0.8c0.4-0.1,0.3-0.7,0.7-0.8
	C484.5,217.8,484.5,218.3,484.5,218.9z"/>
<path class="st4" d="M465,287.8c0.4-1.7,1.6-3.1,2.4-4.6c3.6-6.4,6.6-13.1,9-20.1c1.6-4.8,3.1-9.6,4.1-14.6c0.1-0.6,0.3-1.3,0.8-1.8
	c0.4,0.5,0.2,1.1,0.1,1.6c-1.9,7.6-4.1,15.2-7.2,22.5c-2.4,5.7-5.2,11.2-8.5,16.5C465.5,287.4,465.3,287.7,465,287.8z"/>
<path class="st0" d="M449.7,306c2.1-2.3,4.3-4.5,6.6-6.6c0.2,0.5-0.1,0.9-0.5,1.3c-1.6,1.6-3.2,3.2-4.9,4.9
	C450.6,305.8,450.2,306.1,449.7,306z"/>
<path class="st4" d="M458.4,296.7c0.7-1.9,2.2-3.2,3.5-4.6C461.2,294,459.9,295.4,458.4,296.7z"/>
<path class="st4" d="M483.1,236.9c-0.4-1.7,0.3-3.4,0.7-5C484.1,233.7,484,235.3,483.1,236.9z"/>
<path class="st0" d="M444.6,310.2c1.1-1.3,2.5-2.3,4-3.2C447.8,308.7,446.4,309.6,444.6,310.2z"/>
<path class="st0" d="M198.4,341.1c-0.7,1.3-1.5,2.5-2.7,3.4C196.1,343,196.8,341.7,198.4,341.1z"/>
<path class="st4" d="M482.2,241.8c-0.4-1.4,0.3-2.5,0.7-3.8C483.3,239.4,483.1,240.7,482.2,241.8z"/>
<path class="st4" d="M481.4,245.9c-0.3-1.2,0.2-2.3,0.7-3.4C482.5,243.8,482.4,244.9,481.4,245.9z"/>
<path class="st0" d="M206.8,330.1c-0.5,1.2-1.1,2.2-2.2,3C204.9,331.7,205.5,330.7,206.8,330.1z"/>
<path class="st0" d="M201.2,337.4c-0.5,1.2-1.3,2.2-2.3,3C199.2,339,199.8,337.9,201.2,337.4z"/>
<path class="st0" d="M204.4,333.3c-0.5,1.2-1.2,2.2-2.3,3C202.5,335,203.1,333.9,204.4,333.3z"/>
<path class="st0" d="M347.9,333.9c-1-0.8-1.8-1.8-2.2-3C347,331.4,347.6,332.5,347.9,333.9z"/>
<path class="st0" d="M195.1,345.2c-0.6,1.1-1.3,2.2-2.3,3C193.1,346.8,193.7,345.6,195.1,345.2z"/>
<path class="st6" d="M89,290.9c0.9,0.7,1.5,1.6,1.9,2.6C89.7,293,89.2,292,89,290.9z"/>
<path class="st0" d="M190.6,351.3c-0.2,0.9-0.7,1.6-1.4,2.2C189.2,352.4,189.5,351.6,190.6,351.3z"/>
<path class="st6" d="M87.3,288.4c0.8,0.6,1.2,1.3,1.4,2.2C87.8,290.2,87.4,289.4,87.3,288.4z"/>
<path class="st0" d="M349.5,336c-0.7-0.4-1.2-1-1.4-1.8C349,334.4,349.6,334.9,349.5,336z"/>
<path class="st6" d="M86.1,286.4c0.7,0.4,1,1,1.1,1.8C86.4,287.9,86,287.3,86.1,286.4z"/>
<path class="st4" d="M463,290.7c0-0.7,0.2-1.2,1-1.4C464,290,463.7,290.5,463,290.7z"/>
<path class="st6" d="M91.4,294.2c0.6,0.2,1,0.7,1.1,1.4C91.7,295.4,91.4,294.9,91.4,294.2z"/>
<path class="st6" d="M92.6,295.8c0.6,0.2,1,0.7,1.1,1.4C93,297,92.5,296.6,92.6,295.8z"/>
<path class="st0" d="M456.9,298.8c0.1-0.6,0.6-1,1.1-1.3C458,298.3,457.6,298.7,456.9,298.8z"/>
<path class="st4" d="M462.1,291.9c0-0.5,0.2-0.8,0.7-1C462.8,291.4,462.7,291.8,462.1,291.9z"/>
<path class="st6" d="M103.2,301.6c0.2-0.4,0.4-0.4,0.8-0.3C103.8,301.7,103.6,301.8,103.2,301.6z"/>
<path class="st6" d="M366.3,276.3c-3.9-2.1-7.3-0.3-9.1,2.6c-2.4,3.7-5.3,7.1-8.3,10.3c-0.3,0.3-0.4,0.7-1,0.6
	c-0.4-0.3-0.3-0.7-0.2-1.1c1.5-6.4,1.7-12.9,0.7-19.4c-1.4-9.1-5.1-17.3-11.5-24c-3.3-3.5-7.1-6.5-11.3-8.9c-2-1.2-3.8-2.6-5-4.7
	c-0.7-1.2-1-2.4-1.3-3.6c-1.2-4.6-3.1-8.8-5.8-12.7c-4.4-6.3-10.4-10.6-17.6-13.3c-8-3-16.3-3.9-24.8-3.2
	c-7.9,0.6-15.4,2.5-22.2,6.7c-7.5,4.7-12.7,11.3-15.5,19.8c-0.5,1.5-0.9,3-1.3,4.5c-0.7,2.2-1.9,4-3.9,5.3c-1.1,0.7-2.2,1.4-3.3,2.1
	c-7.2,4.4-12.8,10.2-16.7,17.7c-4.6,8.7-6,17.9-5.1,27.6c0.2,2.3,0.6,4.7,1.1,6.9c-0.5,0.4-0.8,0.1-1-0.2
	c-5.8-6.4-10.9-13.4-14.9-21c-4.2-8-7.4-16.3-9.2-25.1c-1.8-8.5-2.5-17.2-2-25.9c0.6-9.9,2.5-19.5,6-28.8c3.7-9.8,8.8-18.8,15.3-27
	c6-7.6,12.9-14.3,20.8-20c6.1-4.4,12.7-8.1,19.7-11c6.2-2.6,12.5-4.5,19.1-5.7c9-1.7,18.2-2.1,27.4-1.2c12.3,1.2,24,4.5,35,10
	c10.3,5.2,19.5,12.1,27.5,20.4c12.6,13.2,20.8,28.7,24.8,46.4c2.2,9.7,2.9,19.6,2,29.5c-0.5,5.6-1.3,11-2.6,16.4
	c-0.9,3.8-2.2,7.5-3.5,11.3c-1.3,3.7,0.4,7,4.1,8.1c0.1,0,0.2,0.1,0.3,0.2c-0.7,0.2-1.5,0.1-1.8,1c-0.5,1.2-1.3,2.3-1.6,3.6
	C368.6,272.6,367.1,274.3,366.3,276.3z M217.9,208C218,208,218,208,217.9,208c0.1,1.8,0,3.7,0.1,5.5c0.2,2.6,1.8,4.4,4.2,5.2
	c3.7,1.2,7.6-1.4,7.8-5.7c0.2-3.3,0.2-6.6,0-10c-0.2-3.4-3-5.8-6.2-5.7c-3.4,0.1-6,3-6,6C218,204.8,217.9,206.4,217.9,208z
	 M321.8,208C321.8,208,321.8,208,321.8,208c0,1.7-0.1,3.4,0,5.1c0.2,3.2,2.7,5.6,5.8,5.8c3.1,0.2,5.8-2,6.2-5.2
	c0.5-3.8,0.4-7.7,0-11.5c-0.1-0.8-0.3-1.4-0.8-2.1c-1.5-2.2-4.2-3.3-6.5-2.6c-2.9,0.8-4.6,2.9-4.7,5.9
	C321.8,204.9,321.8,206.5,321.8,208z"/>
<path class="st6" d="M335.3,337.9c2.5,3.1,5.1,6.2,7.5,9.3c3.2,4.1,6.6,8.1,9.4,12.5c3.6,5.4,6.5,11.1,8.1,17.4
	c1.1,4.4,1.4,8.8,1.3,13.3c-0.4,12.3-4.7,23.4-10.1,34.3c-0.8,1.6-1.6,3.3-2.5,4.9c-2.8,5.1-2,13.2,3.1,18c1.5,1.4,2.9,2.9,4.3,4.3
	c0.7,0.7,1.3,1.6,1.8,2.5c1.2,2.1,0.1,4.5-2.3,4.9c-0.5,0.1-0.9,0.1-1.4,0.1c-7.9,0-15.7,0-23.6,0c-0.5,0-0.9,0-1.4-0.1
	c-1.5-0.1-1.5-0.1-1.5-1.5c0-1.7,0.1-3.4-0.3-5.1c-0.7-3.1-2.4-5.6-4.3-8c-1.4-1.7-3-3.3-4.6-4.8c-2.6-2.5-2.8-3.1-1.1-6.3
	c2.9-5.4,5.4-10.9,7.6-16.7c2.3-6.3,4.1-12.8,5-19.5c0.4-2.9,0.5-5.8,0.6-8.7c0.2-3.9-2.2-6.8-5.9-6.9c-3.7-0.1-6.4,2.6-6.4,6.6
	c-0.1,5.5-0.8,11-2.3,16.3c-2,7.3-4.8,14.2-8.3,21c-1,1.9-2.2,3.8-2.8,5.9c-2.1,6.6-0.3,12.2,4.7,16.8c1.6,1.5,3.1,3,4.4,4.8
	c0.4,0.6,0.9,1.2,1.2,1.9c0.7,1.5,0,3.2-1.5,3.9c-1,0.5-2,0.5-3,0.5c-8.9,0-17.8,0-26.7,0c-0.3,0-0.7,0-1,0c-1,0-1.3-0.5-1.3-1.4
	c0-0.9,0-1.8,0-2.6c0-21.9,0-43.9,0-65.8c0-0.8,0-1.6-0.1-2.4c-0.4-3-2.6-5-5.6-5.2c-3-0.2-5.5,1.6-6.3,4.4
	c-0.3,0.9-0.3,1.9-0.3,2.8c0,22.6,0,45.2,0,67.8c0,0.1,0,0.1,0,0.2c0,2.2,0,2.2-2.3,2.2c-3.1,0-6.1,0-9.2,0c-5.9,0-11.8,0-17.7,0
	c-0.3,0-0.7,0-1,0c-3.3-0.3-4.5-2.7-2.6-5.4c1.3-1.8,2.7-3.6,4.4-5c2.3-1.9,4.2-4.2,5.2-7.2c1.5-4.4,1.2-8.7-1-12.8
	c-1.8-3.4-3.5-6.7-5-10.2c-3.2-7.4-5.7-15-6.8-22.9c-0.2-1.5-0.2-3-0.3-4.5c-0.1-1.4-0.1-2.7-0.3-4.1c-0.4-3.4-2.9-5.5-6.3-5.4
	c-3.2,0.1-5.8,2.5-5.8,5.9c-0.1,3.6,0.2,7.2,0.7,10.8c0.9,6.2,2.5,12.2,4.7,18.1c2.1,5.7,4.6,11.2,7.5,16.5c0.3,0.6,0.7,1.2,0.9,1.8
	c0.6,1.5,0.5,2.9-0.7,4.1c-1.4,1.4-2.9,2.8-4.3,4.3c-2.5,2.7-4.7,5.6-5.6,9.3c-0.5,1.7-0.4,3.5-0.4,5.3c0,1.4,0,1.4-1.4,1.5
	c-0.9,0-1.8,0-2.6,0c-7.1,0-14.3,0-21.4,0c-0.9,0-1.8,0-2.6-0.2c-2.3-0.5-3.2-2.6-2.1-4.7c0.8-1.5,2-2.6,3.1-3.8
	c0.9-1,1.9-1.9,2.9-2.8c5.1-5,6.3-12,3.3-18.3c-2-4.1-4.2-8.1-5.9-12.3c-2.9-6.8-5.2-13.7-6.1-21c-0.9-6.9-0.8-13.8,1.2-20.6
	c1.5-5.2,3.9-10,6.8-14.5c3.2-5,7-9.6,10.7-14.3c2.4-3,4.8-6.1,7.2-9.1c1.6,0.2,3,0.8,4.3,1.6c0.9,0.6,1.9,1.1,2.9,1.5
	c7.5,2.9,15.1,5.7,22.9,7.4c4,0.9,8,1.7,12.1,2.2c3.1,0.3,6.2,0.8,9.3,0.7c0.3,0,0.5,0.1,0.8,0.1c2.2,0.4,4.4,0.7,6.6,0.7
	c3.3,0,6.6-0.4,9.9-0.7c3.1-0.3,6.2-0.6,9.2-1.1c6.8-0.9,13.4-2.6,19.9-4.5c1.9-0.6,3.7-1.2,5.5-1.9c4.2-1.8,8.6-3.3,12.7-5.5
	C333.6,338.1,334.4,337.8,335.3,337.9z"/>
<path class="st7" d="M314.2,313.5c-3.6,1.8-7.4,2.9-11.3,4c-8.7,2.5-17.5,3.7-26.5,3.8c-7.6,0-15.2-0.8-22.6-2.6
	c-8-1.9-15.6-4.6-22.9-8.3c-2.2-1.1-4.4-2.4-6.6-3.6c-0.8-0.4-1.3-1.2-1.7-2c-2.6-5.5-4.9-11.2-6.3-17.2c-1.1-4.5-1.5-9-1.3-13.5
	c0.4-9.2,4.4-16.6,11.2-22.7c2.6-2.4,5.8-4,8.7-6.1c4.8-3.4,8-7.8,9.4-13.6c1.1-4.7,3.2-8.9,6.6-12.4c1-1,2.1-1.9,3.3-2.6
	c0.7-0.4,1.1-0.3,1.5,0.4c0.5,0.8,1,1.6,1.6,2.4c9.2,11.8,26.1,12.4,36.1,1.3c0.9-1,1.7-1.9,2.4-3.1c0.9-1.5,1.3-1.5,2.7-0.4
	c3.4,2.6,5.9,5.8,7.5,9.7c0.7,1.6,1.1,3.2,1.5,4.9c1.6,6.5,5.3,11.5,11.2,14.8c2.6,1.4,4.9,3.1,7.2,4.9c6.2,5.1,9.4,11.8,10.5,19.6
	c0.9,6.2,0,12.3-1.6,18.3c-0.3,1.1-0.4,2.3-1.1,3.3c-0.9-0.2-1.2,0.5-1.4,1.1c-1,2.2-2.7,3.6-4.5,5c-3,2.3-5.5,5.2-8.1,7.9
	c-1.2,1.3-2.4,2.7-3.8,3.8C315.2,311.3,314,312,314.2,313.5z M285.1,249.3c3.2,0,5.4-0.4,7.5-1.2c3.2-1.2,6.1-3,8.1-5.9
	c1.4-2,1.6-4.2,0.4-6.3c-1.2-2.1-3-3.2-5.5-3.2c-1.7,0-3.1,0.7-4.3,1.9c-1.8,1.8-4,2.8-6.6,2.3c-1.7-0.3-3-1.2-4.2-2.3
	c-1.2-1.1-2.5-1.8-4.2-1.9c-1.9-0.1-3.5,0.6-4.9,2c-2.8,2.7-6,3-9.1,1.2c-0.7-0.4-1.3-1-1.9-1.5c-2-1.7-4.2-2.2-6.6-1.2
	c-4.1,1.8-5,6.6-1.8,10c5.7,6.1,15.1,7.9,22.6,4.2c1.1-0.5,2-0.6,3,0C280.2,248.8,283.1,249.3,285.1,249.3z"/>
<path class="st7" d="M187.9,291c-1.6,1.5-3.7,1.8-5.7,2.1c-2.3,0.3-4.5,0.9-6.7,1.3c-2.7,0.4-5.5,0.8-8.2,1.1
	c-1.3,0.1-2.6,0.3-3.8,0.5c-2,0.4-4,0.3-6.1,0.3c-2,0.1-3.9,0-5.9,0.3c-1.2,0.2-2.6,0.2-3.8-0.2c-0.6-0.2-1.2-0.1-1.8-0.1
	c-4,0-7.9-0.5-11.8-1.1c-8.7-1.5-17-4.3-24.9-8.1c-2.3-1.1-4.4-2.6-6.5-4c-1.9-1.3-3.8-2.8-6.1-3.4c-2.6-3.7-4.6-7.8-6.4-12
	c-0.9-2.2-1.9-4.3-2.6-6.6c-0.4-1.1,0-1.3,0.9-1.5c1.8-0.3,3.6-0.6,5.3-1.3c3.4-1.2,6.3-3.1,8.8-5.6c2.1-2.1,2.6-4.9,1.4-7.3
	c-1.7-3.3-6-4.4-9-2.2c-1.2,0.9-2.3,1.9-3.6,2.7c-2,1.2-4.3,1.7-6.6,1.7c-0.8,0-1.4-0.2-1.6-1c-0.4-1.7-0.7-3.3-1.1-5
	c-0.2-0.9,0.3-1.2,1.1-1.3c4.3-0.8,7.8-2.9,10.9-5.9c5.1-4.9,7.7-10.9,7.4-18c-0.1-2.4-0.5-2.3,2.2-2.3c1.7,0,3.4,0,5.1,0
	c1.5,0,1.5,0,1.8,1.5c0.5,2.3,0.9,4.7,1.7,6.9c2.8,7.7,7.7,13.6,14.5,18.1c6.5,4.3,13.8,6.6,21.4,8c6,1.1,12.1,1.5,18.2,1.6
	c1.6,0,1.7,0,2.1,1.5c2.8,9.9,6.8,19.3,12.1,28.1c-0.1,0.3,0.1,0.5,0.3,0.6c0.2,0.4,0.5,0.8,0.7,1.3c0,0.2,0.1,0.4,0.3,0.4
	c0,0,0.1,0.1,0.1,0.1c0,0.4,0.1,0.6,0.5,0.7c0,0,0,0,0,0c0,0.2,0.1,0.4,0.3,0.4c0.3,0.5,0.6,1,1,1.5c0,0.3,0.1,0.4,0.3,0.5l0,0
	c0,0.2,0.1,0.4,0.3,0.4c0.2,0.3,0.3,0.5,0.5,0.8c0,0.2,0.1,0.4,0.3,0.4l0,0c0,0.4,0.2,0.6,0.5,0.7c0.1,0.2,0.2,0.3,0.3,0.5
	c0,0.2,0.1,0.4,0.3,0.4l0.1,0.1c0,0.4,0.2,0.6,0.5,0.7c0.2,0.3,0.5,0.6,0.7,0.9C187.9,290.5,187.9,290.7,187.9,291z"/>
<path class="st7" d="M366.3,276.3c0.9-2,2.3-3.7,3.3-5.7c1.1,0.1,1.8-0.6,2.2-1.3c0.6-1.1,1.5-1.8,2.6-2.3c0.4-0.2,0.7-0.4,0.8-0.8
	c2.9-0.8,4.4-3,5.3-5.7c0.6,0,1.1,0,1.4-0.6c1.6-2.3,3.8-4,5.7-6c0.8-0.8,1.4-1.8,1.6-2.9c-0.8-0.7-2,0.1-2.7-0.7
	c4.7-0.2,9.5-0.5,14.2-1.2c6.7-1,13.3-2.7,19.4-5.8c10.7-5.5,17.9-13.9,20.5-25.8c0.1-0.4,0.2-0.8,0.2-1.2c0.5-2.2,0.5-2.2,2.7-2.2
	c1.7,0,3.4,0.1,5.1,0.1c1.5,0,1.6,0,1.5,1.6c-0.2,4.3,0.7,8.4,2.6,12.2c1.7,3.4,4.3,6.1,7.1,8.5c0,0.2,0.2,0.3,0.4,0.3c0,0,0,0,0,0
	c0.1,0.2,0.2,0.3,0.5,0.3c0,0,0,0,0,0c-0.2,2.7-1.9,4.3-3.9,5.7c0,0-0.1,0-0.2,0c-1-0.4-2-0.9-3.1-0.9c-2.6,0-4.5,1.1-5.7,3.3
	c-1.2,2.2-0.9,4.3,0.5,6.3c1.3,1.9,3.1,3.2,5,4.4c2.7,1.7,5.5,2.8,8.7,3.3c0.6,0.1,1.2,0.2,1.8,0.4c0.7,0.2,0.8,0.5,0.6,1.2
	c-1.7,4.3-3.3,8.6-5.6,12.6c-0.2,0-0.3,0.2-0.2,0.4c-0.2,0.4-0.4,0.8-0.6,1.3c-0.2,0-0.3,0.2-0.2,0.4c-0.3,0.9-0.9,1.7-1.4,2.5
	c-0.2,0-0.3,0.1-0.2,0.3c0,0-0.1,0.1-0.1,0.1c-0.6,0-1,0.2-1.5,0.6c-3.8,3.6-8.5,6-13,8.5c-3.3,1.9-7,3.3-10.7,4.4
	c-3.6,1.1-7.1,2.6-10.9,2.9c-3.6,0.3-7.1,0.9-10.6,1.2c-2.1,0.2-4.2,0.1-6.2,0.6c-0.9,0.2-1.9,0.2-2.8,0c-3.9-0.8-8-0.2-11.9-0.7
	c-3.1-0.4-6.1-0.8-9.2-1.2c-2.7-0.3-5.5-0.9-8.2-1.4c-2.1-0.4-4.3-0.5-6.2-1.6c-0.8-0.4-0.8-0.9-0.7-1.6c1.1-1.6,2.1-3.3,3.4-4.8
	c1.9-2.3,1.7-6.7-0.9-8.6C366.5,276.7,366.4,276.5,366.3,276.3z"/>
<path class="st4" d="M122.3,205.8c0-17.3,6.2-30.6,18.2-41.4c3.2-2.9,6.6-5.4,10.3-7.6c0.4-0.2,0.8-0.5,1.2-0.7
	c0.6-0.4,1-0.1,1.2,0.5c0.2,0.8,0.3,1.6,0.4,2.4c0.9,6.7,2.7,13.3,4.7,19.7c2.2,7,4.9,13.8,8.1,20.4c0.5,0.9,0.3,1.9,0.1,2.8
	c-1.7,8.1-2.1,16.4-1.8,24.7c0.1,3.1,0.5,6.2,0.7,9.3c0.1,1.7,0.1,1.7-1.6,1.7c-5.9,0-11.8-0.7-17.5-2.1c-4.9-1.2-9.5-3-13.7-6
	c-5.5-3.9-8.5-9.3-9.7-15.9C122.6,210.7,122.3,207.7,122.3,205.8z M136.5,208.1C136.5,208.1,136.5,208.1,136.5,208.1
	c0,1.8-0.1,3.5,0.1,5.3c0.3,4,4.3,6.6,8.1,5.2c2.5-0.9,4-3,4.1-6.2c0.1-3,0-6,0-8.9c-0.1-3.6-2.6-6.1-6-6.2
	c-3.5-0.1-6.1,2.5-6.2,6.1C136.5,204.9,136.5,206.5,136.5,208.1z"/>
<path class="st4" d="M429.5,205.3c0,2.8-0.2,6.6-1,10.3c-1.8,7.9-6.7,13.2-13.7,16.7c-5.6,2.8-11.6,4.1-17.8,4.8
	c-3,0.4-5.9,0.6-8.9,0.6c-1.9,0-1.9,0-1.7-1.8c1-9.2,1.1-18.4,0-27.6c-0.2-1.9-0.5-3.8-0.9-5.6c-0.4-1.6-0.2-3.1,0.6-4.7
	c5.2-10.9,8.9-22.4,11.4-34.3c0.4-2.1,0.7-4.1,1-6.2c0.2-1.6,0.5-1.8,2-1c3.4,1.9,6.6,4.1,9.5,6.6c5.2,4.5,9.8,9.6,13.1,15.7
	C427.6,186.7,429.6,195.3,429.5,205.3z M415.5,207.9c-0.1-1.9,0.2-3.8-0.2-5.8c-0.7-3.6-4.3-5.6-7.8-4.5c-2.8,0.9-4.3,3-4.4,6.1
	c-0.1,2.8,0,5.7,0,8.5c0,1.1,0.3,2.2,0.7,3.1c1.3,2.7,4.5,4.1,7.3,3.2c2.6-0.8,4.2-3,4.3-6.2C415.6,210.9,415.5,209.4,415.5,207.9z"
	/>
<path class="st4" d="M335.3,337.9c-0.9-0.1-1.6,0.2-2.3,0.6c-4.1,2.2-8.4,3.7-12.7,5.5c-1.8,0.7-3.7,1.4-5.5,1.9
	c-6.5,1.9-13.2,3.6-19.9,4.5c-3.1,0.4-6.1,0.8-9.2,1.1c-3.3,0.3-6.6,0.7-9.9,0.7c-2.2,0-4.4-0.3-6.6-0.7c-0.3,0-0.5-0.1-0.8-0.1
	c-3.1,0.1-6.2-0.4-9.3-0.7c-4.1-0.4-8.1-1.3-12.1-2.2c-7.9-1.7-15.4-4.6-22.9-7.4c-1-0.4-1.9-1-2.9-1.5c-1.4-0.8-2.7-1.5-4.3-1.6
	c1.4-2.3,2.9-4.6,4.2-7c1.3-2.5,2.4-5,3.1-7.7c0.5-1.9,0.7-2,2.3-1.2c5.5,2.7,11.1,5,17,6.7c7.2,2.1,14.4,3.6,21.9,4.3
	c6.4,0.6,12.7,0.6,19.1,0.2c4.5-0.2,8.9-0.9,13.3-1.8c9.6-1.9,18.8-5,27.6-9.3c0.3-0.1,0.6-0.2,0.9-0.4c0.9-0.4,1.4-0.3,1.7,0.7
	c1.4,5.6,4.3,10.5,7.5,15.2C335.3,337.7,335.3,337.8,335.3,337.9z"/>
<path class="st0" d="M364.3,290.2c-0.1,0.7-0.1,1.2,0.7,1.6c2,1.1,4.1,1.2,6.2,1.6c2.7,0.6,5.4,1.1,8.2,1.4c3.1,0.3,6.2,0.8,9.2,1.2
	c4,0.5,8-0.1,11.9,0.7c0.9,0.2,1.9,0.2,2.8,0c2.1-0.5,4.2-0.4,6.2-0.6c3.6-0.3,7.1-0.9,10.6-1.2c3.8-0.3,7.3-1.8,10.9-2.9
	c3.7-1.1,7.3-2.5,10.7-4.4c4.5-2.6,9.2-4.9,13-8.5c0.4-0.4,0.9-0.6,1.5-0.6c-2.5,4.7-5.7,8.9-9.2,12.8c-7.7,8.6-17,14.9-27.9,18.9
	c-7.9,2.8-16.1,4.2-24.5,4.6c-10.4,0.5-20.6-0.5-30.8-2.4c-5.6-1.1-11.1-2.4-16.6-3.8c0-1,0.7-1.4,1.3-1.8
	c5.7-4.9,10.8-10.3,15.4-16.2C364,290.3,364.2,290.2,364.3,290.2z"/>
<path class="st4" d="M172,180.9c-0.5-1.6-1-3.1-1.5-4.5c-2.5-7.6-4.4-15.4-5.3-23.4c-0.8-6.9-0.8-13.8,0.4-20.7
	c1.2-6.7,3.6-12.9,7.5-18.6c2.1-3.2,5-4.2,8.6-3.6c9.9,1.7,19.2,4.8,27.5,10.5c2.5,1.7,4.9,3.7,7.1,5.8c0.9,0.9,0.9,1.1-0.2,1.9
	c-2.1,1.6-4.3,3-6.5,4.6c-0.9,0.7-1.6,0.5-2.5-0.2c-4.3-3.8-9.1-6.6-14.5-8.5c-8.1-2.9-15.2,2.7-16.2,9.3c-1.1,7.1-1,14-0.1,21.1
	c0.5,4,1.4,7.9,2.4,11.7c0.2,0.7,0.2,1.3-0.2,2c-2.2,4-4,8.1-6,12.3C172.6,180.6,172.4,180.7,172,180.9z"/>
<path class="st4" d="M379.9,180.6c-0.8-0.2-0.9-0.7-1.1-1.2c-1.4-3.5-3-6.8-4.9-10.1c-0.7-1.3-0.8-2.5-0.5-3.9
	c2-7.5,3.2-15.1,3.1-22.9c0-3.3-0.5-6.6-1.1-9.9c-1.1-6.1-8.1-11.2-15.6-8.6c-5.4,1.8-10.2,4.6-14.5,8.4c-1.5,1.3-1.8,1.3-3.3,0.2
	c-1.7-1.3-3.5-2.5-5.3-3.7c-2-1.3-2.1-1.4-0.3-3c2.7-2.5,5.6-4.7,8.7-6.7c7.7-4.8,16.2-7.5,25.1-9.1c3.9-0.7,6.8,0.5,9.1,3.9
	c3.4,5.1,5.5,10.7,6.9,16.6c1.4,6.2,1.4,12.4,1.1,18.6c-0.3,4.4-1,8.8-1.9,13.1c-1.1,5.4-2.6,10.7-4.5,15.8
	C380.5,179,380.2,179.8,379.9,180.6z"/>
<path class="st0" d="M188.3,152.5c-0.7-5.1-0.9-10.1-0.3-15.2c0.1-1.2,0.5-1.5,1.6-1c3,1.2,5.7,2.8,8.2,4.8c0.6,0.5,0.9,1,0.1,1.7
	c-3.1,2.8-5.8,6.1-8.6,9.2C189.3,152.2,189,152.5,188.3,152.5z"/>
<path class="st0" d="M363.5,152.6c-1.2-1.2-2-2.1-2.8-3c-2.2-2.2-4.3-4.5-6.5-6.7c-0.9-0.9-0.9-1.1,0.1-1.9c2.4-2,5.2-3.5,8-4.7
	c0.7-0.3,1.4-0.4,1.5,0.6C364.4,141.9,364.3,147,363.5,152.6z"/>
<path class="st0" d="M314.2,313.5c-0.2-1.5,1-2.2,1.9-2.9c1.5-1.1,2.6-2.5,3.8-3.8c2.6-2.7,5.1-5.5,8.1-7.9c1.8-1.4,3.5-2.9,4.5-5
	c0.3-0.6,0.5-1.3,1.4-1.1c-0.8,3.4-2.4,6.6-3.6,9.9c-1,2.7-2.8,4.5-5.3,5.8c-3.3,1.7-6.6,3.4-10,5
	C314.8,313.4,314.5,313.4,314.2,313.5z"/>
<path class="st4" d="M80.1,224.5c-0.1-4.9,2.8-8.7,7.3-9.6c1.2-0.2,1.6,0,1.7,1c0.3,4.6-1.8,9.7-6.9,11.8c-1.7,0.7-1.9,0.5-2-1.4
	C80,225.7,80.1,225.1,80.1,224.5z"/>
<path class="st4" d="M472,223.7c-0.1,1.1-0.2,2.2-0.3,3.2c-0.1,0.9-0.5,1.1-1.4,0.8c-3.1-1.1-5.2-3.1-6.5-6c-0.9-1.9-0.9-3.9-0.8-6
	c0-0.9,0.4-1.2,1.3-1C468.5,215.5,471.9,219.2,472,223.7z"/>
<path class="st0" d="M456.8,242.9c0.1,0,0.1,0,0.2,0c2-1.5,3.7-3.1,3.9-5.7c2.5,1.4,5.2,2.6,8,3.2c0.8,0.2,1,0.6,0.9,1.3
	c-0.3,1.7-0.7,3.3-1.1,5c-0.2,0.9-0.8,1-1.6,1c-2.9,0-5.6-0.8-8-2.6C458.4,244.4,457.6,243.6,456.8,242.9z"/>
<path class="st0" d="M228.2,121.1c3.6-1.6,7.3-3.2,11-4.5c2.3-0.8,4.7-1.5,7.1-2.2c1.6-0.5,3.3-0.8,4.9-1.3c1.5-0.5,3.2-0.7,4.7-1
	c1.6-0.3,3.2-0.7,4.8-0.8c3.7-0.1,7.2-1.2,10.9-1c2.8,0.1,5.6,0,8.3,0c2.4,0,4.7,0.1,7,0.6c0.5,0.1,1.1,0.1,1.6,0.1
	c1.6,0,3.2,0.2,4.8,0.6c1.7,0.5,3.6,0.6,5.4,0.9c3.3,0.6,6.4,1.5,9.6,2.5c4,1.2,7.9,2.7,11.8,4.2c1.4,0.6,2.6,1.5,4.2,1.2
	c-0.4,1.2-1.2,0.9-2,0.5c-2.7-1.3-5.6-2.4-8.4-3.5c-5.3-1.9-10.7-3.4-16.2-4.5c-6.6-1.3-13.3-2-20-2.1c-5.7-0.1-11.4,0.3-17,1.1
	c-5.5,0.7-10.8,1.9-16.1,3.4c-4.9,1.4-9.7,3.3-14.4,5.3C229.5,121.2,228.9,121.8,228.2,121.1z"/>
<path class="st0" d="M332.1,113.3c0.3-1.3,1.6-1.8,2.5-2.5c4.4-3.1,9.2-5.6,14.1-7.8c3.7-1.6,7.5-2.8,11.3-3.8
	c5.2-1.4,10.6-2.4,16-1.8c2,0.2,3.9,0.9,5.5,1.8c2.9,1.6,5.5,3.6,7.3,6.5c1.4,2.3,3,4.5,4.2,6.9c1.5,2.9,2.7,6,3.8,9.1
	c0.6,1.7,0.7,3.6,1.5,5.2c0.3,0.6,0.4,1.4-0.1,2.1c-0.9-1.8-1-3.8-1.6-5.6c-1.9-6.9-4.9-13.2-9.3-18.7c-4.4-5.6-10.5-7.7-17.5-6.8
	c-5.3,0.7-10.5,2-15.6,3.7c-7.6,2.5-14.5,6.1-20.9,10.9C332.9,112.9,332.6,113.3,332.1,113.3z"/>
<path class="st0" d="M386.7,250.2c0.7,0.9,1.9,0,2.7,0.7c-0.2,1.1-0.8,2-1.6,2.9c-1.9,2-4.1,3.7-5.7,6c-0.4,0.5-0.9,0.6-1.4,0.6
	c1-3.2,1.9-6.3,2.9-9.5c0.2-0.6,0.5-0.8,1-0.8C385.2,250.1,386,250,386.7,250.2z"/>
<path class="st0" d="M178.5,97.6c1.7-0.5,3.4-0.3,5-0.1c1.7,0.2,3.4,0.6,5.1,1c3.5,0.8,6.9,1.7,10.3,2.9c2.4,0.8,4.8,1.9,7.1,2.9
	c4.2,1.9,8.1,4.3,11.8,6.9c0.5,0.3,0.9,0.6,0.9,1.2c-1.7-0.7-3-2-4.5-3c-6-3.8-12.3-6.6-19.1-8.6C189.7,99.3,184.2,98.2,178.5,97.6z
	"/>
<path class="st0" d="M441.5,196c0.9,0.6,0.9,1.6,1,2.5c0.1,0.5,0,1.1,0,1.6c0,0.8,0.3,1.3,1.2,1.2c2.4-0.2,4.8,0.3,7.3,0.3
	c4.8,0,9.6-0.1,14.4,0.1c3.3,0.1,6.3,1.4,9,3.2c0.2,0.2,0.3,0.4,0.3,0.7c-0.8-0.1-1.4-0.7-2.1-1.1c-3.2-1.6-6.5-2.5-10.1-2.5
	c-6.1,0-12.2,0-18.3,0c-0.5,0-0.9,0-1.4,0c-0.6,0-1.1-0.3-1.1-1C441.7,199.4,441.2,197.7,441.5,196z"/>
<path class="st0" d="M399.2,135.7c0.9,0.8,0.8,1.9,0.9,2.9c0.1,0.5,0.1,1.1,0,1.6c-0.1,1,0.3,1.6,1.2,2c4.7,2.3,9.1,5.1,13.4,8.1
	c0.7,0.5,1.5,0.9,1.7,1.9c-1.6-0.7-2.9-2-4.3-3c-3.6-2.5-7.4-4.7-11.4-6.7c-0.9-0.4-1.5-1-1.5-1.9
	C399.2,139.1,398.9,137.4,399.2,135.7z"/>
<path class="st0" d="M427.8,163.5c1.3,0.2,1.7,1.4,2.4,2.3c1.7,2.3,3.2,4.8,4.6,7.3c0.3,0.6,0.5,1.1,0.2,1.7c-2-3.5-4.1-7-6.6-10.2
	C428.1,164.2,427.8,164,427.8,163.5z"/>
<path class="st0" d="M166.3,102.7c0.1-1,1-1.4,1.6-1.9c2.1-1.6,4.5-2.4,7-3.2c0.6-0.2,1.3-0.4,1.9,0.1c-1.1,0.8-2.5,0.7-3.8,1.2
	C170.5,99.7,168.4,101.3,166.3,102.7z"/>
<path class="st0" d="M375.3,266.1c-0.2,0.4-0.5,0.6-0.8,0.8c-1.1,0.5-2,1.2-2.6,2.3c-0.5,0.8-1.2,1.5-2.2,1.3
	c0.3-1.3,1.1-2.4,1.6-3.6c0.4-0.9,1.1-0.8,1.8-1C373.7,266.1,374.5,266.1,375.3,266.1z"/>
<path class="st0" d="M419.1,154.6c0.5-0.2,0.9,0.1,1.2,0.5c1.8,1.8,3.5,3.5,5.3,5.3c0.3,0.3,0.6,0.7,0.5,1.2
	C423.8,159.2,421.5,156.9,419.1,154.6z"/>
<path class="st0" d="M475,205.9c2.3,0.6,3.6,2.5,5,4.2c0.4,0.4,0.9,0.9,0.7,1.6C478.9,209.6,477,207.7,475,205.9z"/>
<path class="st0" d="M435.1,174.9c0.4,0,0.7,0,0.8,0.4c0.8,1.8,1.7,3.6,2.5,5.4c0.1,0.2,0,0.5-0.3,0.7c-1.2-1.5-1.4-3.4-2.4-5
	C435.4,175.9,435.3,175.4,435.1,174.9z"/>
<path class="st0" d="M119.9,169.3c-0.1-0.3-0.1-0.7,0.1-1c1-1.5,2.1-2.9,3.1-4.4c0.2-0.3,0.6-0.6,1-0.5
	C122.9,165.4,121.6,167.5,119.9,169.3z"/>
<path class="st0" d="M439.1,184.6c0.1,0,0.2,0,0.2,0.1c0.9,1.6,1.8,3.3,1.3,5.2C439.7,188.3,439.5,186.4,439.1,184.6z"/>
<path class="st0" d="M134.5,153.2c1-1.9,2.7-2.8,4.6-3.5C137.7,151.1,136.2,152.2,134.5,153.2z"/>
<path class="st0" d="M440.7,190.7c1.4,1.1,1.1,2.6,0.7,4.1C440.9,193.5,440.5,192.2,440.7,190.7z"/>
<path class="st0" d="M398.3,130c1.4,1.2,1.1,2.6,0.7,4.1C398.6,132.8,398.2,131.4,398.3,130z"/>
<path class="st0" d="M222.4,115.4c1.5,0.3,2.4,1.4,3,2.7C224.2,117.5,223.2,116.5,222.4,115.4z"/>
<path class="st0" d="M130.8,156.4c0.7-1.3,1.5-2.4,3-2.7C132.9,154.8,132,155.8,130.8,156.4z"/>
<path class="st0" d="M127.7,159.5c0.2-1.4,1.1-2.3,2.5-2.5C129.5,158,128.7,158.9,127.7,159.5z"/>
<path class="st0" d="M226.2,119c1.1,0.3,1.8,0.9,1.9,2.1C227.3,120.6,226.7,119.9,226.2,119z"/>
<path class="st0" d="M219.5,113c1.3,0,1.8,0.8,2.2,1.8C220.8,114.5,220.1,113.8,219.5,113z"/>
<path class="st0" d="M124.8,162.8c0.1-1.2,0.8-1.8,1.9-2.2C126.3,161.5,125.6,162.2,124.8,162.8z"/>
<path class="st0" d="M329.2,115.7c0.4-1,1-1.8,2.2-1.8C330.9,114.7,330.1,115.3,329.2,115.7z"/>
<path class="st0" d="M438.3,182.2c0.8,0.3,1.2,0.8,0.6,1.6C438.5,183.3,438.1,182.9,438.3,182.2z"/>
<path class="st0" d="M141,148.3c0.2-1,0.8-1.3,1.7-1.1C142.3,147.8,141.8,148.3,141,148.3z"/>
<path class="st0" d="M118.9,171.2c-0.1,0-0.2-0.1-0.4-0.1c0.3-0.6,0.3-1.4,1.2-1.6C119.7,170.2,119.4,170.7,118.9,171.2z"/>
<path class="st0" d="M426.7,162.2c0.8,0.1,1.2,0.5,1.1,1.3C427.3,163.2,426.8,162.9,426.7,162.2z"/>
<path class="st0" d="M417.2,152.9c0.8-0.1,1.2,0.3,1.3,1.1C417.8,153.9,417.5,153.5,417.2,152.9z"/>
<path class="st0" d="M225.4,118.2c0.5,0,0.8,0.3,0.8,0.8C225.7,118.9,225.5,118.7,225.4,118.2z"/>
<path class="st6" d="M187.1,289.3c-0.4-0.1-0.5-0.3-0.5-0.7C186.9,288.8,187.1,289,187.1,289.3z"/>
<path class="st6" d="M187.9,291c0-0.2-0.1-0.5-0.1-0.7c0.3,0.1,0.5,0.3,0.5,0.7C188.2,290.9,188.1,291,187.9,291z"/>
<path class="st6" d="M185.9,287.7c-0.4-0.1-0.5-0.3-0.5-0.7C185.7,287.1,185.9,287.3,185.9,287.7z"/>
<path class="st6" d="M182.6,282.8c-0.4-0.1-0.5-0.3-0.5-0.7C182.4,282.3,182.6,282.5,182.6,282.8z"/>
<path class="st0" d="M460.9,237.2c-0.2,0-0.4-0.1-0.5-0.3C460.7,236.8,460.8,236.9,460.9,237.2z"/>
<path class="st0" d="M460.4,236.8c-0.2,0-0.3-0.1-0.4-0.3C460.2,236.5,460.4,236.6,460.4,236.8z"/>
<path class="st6" d="M188.7,291.4c-0.2-0.1-0.3-0.2-0.3-0.5C188.6,291,188.7,291.2,188.7,291.4z"/>
<path class="st6" d="M186.5,288.6c-0.2,0-0.3-0.2-0.3-0.4C186.5,288.2,186.6,288.3,186.5,288.6z"/>
<path class="st6" d="M185.3,286.9c-0.2,0-0.3-0.2-0.3-0.4C185.2,286.6,185.4,286.7,185.3,286.9z"/>
<path class="st6" d="M184.5,285.7c-0.2,0-0.3-0.2-0.3-0.4C184.4,285.4,184.5,285.5,184.5,285.7z"/>
<path class="st6" d="M184.2,285.3c-0.3-0.1-0.4-0.2-0.3-0.5C184.1,284.9,184.2,285,184.2,285.3z"/>
<path class="st6" d="M182.9,283.3c-0.2,0-0.3-0.2-0.3-0.4C182.8,282.9,182.9,283,182.9,283.3z"/>
<path class="st6" d="M182.1,282.1c-0.2,0-0.3-0.2-0.3-0.4C182,281.7,182.1,281.8,182.1,282.1z"/>
<path class="st6" d="M181,280.4c-0.3-0.1-0.4-0.3-0.3-0.6C180.9,279.9,181,280.1,181,280.4z"/>
<path class="st0" d="M139.8,149.1c0.1-0.3,0.2-0.4,0.5-0.3C140.2,149.1,140,149.2,139.8,149.1z"/>
<path class="st6" d="M456.3,278.3c-0.1-0.2,0-0.3,0.2-0.3C456.6,278.1,456.5,278.2,456.3,278.3z"/>
<path class="st6" d="M458,275.4c-0.1-0.2,0-0.3,0.2-0.4C458.2,275.3,458.2,275.4,458,275.4z"/>
<path class="st6" d="M458.8,273.8c-0.1-0.2,0-0.3,0.2-0.4C459.1,273.7,459,273.8,458.8,273.8z"/>
<path class="st3" d="M217.9,208c0-1.6,0-3.1,0-4.7c-0.1-3,2.6-5.9,6-6c3.2-0.1,6,2.4,6.2,5.7c0.2,3.3,0.2,6.6,0,10
	c-0.3,4.2-4.1,6.9-7.8,5.7c-2.4-0.8-4-2.5-4.2-5.2C217.9,211.6,218,209.8,217.9,208C218,208,218,208,217.9,208z"/>
<path class="st3" d="M321.8,208c0-1.6,0-3.1,0-4.7c0.1-2.9,1.8-5.1,4.7-5.9c2.4-0.7,5,0.4,6.5,2.6c0.4,0.6,0.7,1.3,0.8,2.1
	c0.4,3.8,0.5,7.7,0,11.5c-0.4,3.2-3.1,5.4-6.2,5.2c-3.1-0.2-5.5-2.6-5.8-5.8C321.7,211.4,321.8,209.7,321.8,208
	C321.8,208,321.8,208,321.8,208z"/>
<path class="st3" d="M285.1,249.3c-2-0.1-4.9-0.5-7.5-1.9c-1.1-0.6-1.9-0.5-3,0c-7.5,3.7-17,1.9-22.6-4.2c-3.1-3.4-2.3-8.1,1.8-10
	c2.4-1.1,4.6-0.5,6.6,1.2c0.6,0.5,1.2,1.1,1.9,1.5c3.1,1.9,6.3,1.5,9.1-1.2c1.4-1.3,3-2.1,4.9-2c1.6,0.1,3,0.8,4.2,1.9
	c1.2,1.2,2.5,2,4.2,2.3c2.6,0.4,4.8-0.5,6.6-2.3c1.2-1.2,2.6-1.9,4.3-1.9c2.5,0,4.3,1.1,5.5,3.2c1.2,2.1,1,4.3-0.4,6.3
	c-2,2.9-4.9,4.6-8.1,5.9C290.5,249,288.3,249.4,285.1,249.3z"/>
<path class="st3" d="M136.5,208.1c0-1.6,0-3.1,0-4.7c0.1-3.6,2.8-6.2,6.2-6.1c3.4,0.1,5.9,2.6,6,6.2c0.1,3,0.1,6,0,8.9
	c-0.1,3.1-1.5,5.3-4.1,6.2c-3.8,1.4-7.8-1.2-8.1-5.2C136.4,211.6,136.6,209.8,136.5,208.1C136.5,208.1,136.5,208.1,136.5,208.1z"/>
<path class="st3" d="M415.5,207.9c0,1.6,0.1,3.1,0,4.6c-0.2,3.2-1.7,5.4-4.3,6.2c-2.9,0.9-6-0.5-7.3-3.2c-0.5-1-0.7-2-0.7-3.1
	c0-2.8-0.1-5.7,0-8.5c0.1-3.1,1.6-5.2,4.4-6.1c3.5-1.1,7,0.9,7.8,4.5C415.7,204,415.4,206,415.5,207.9z"/>
<g id="g3717">
	<path id="path3528" inkscape:connector-curvature="0" class="st8" d="M631.1,298.4h5.6v18.3h2.7v-18.3h5.6v-2.2h-13.8V298.4z"/>
	<path id="path3530" inkscape:connector-curvature="0" class="st8" d="M648.3,316.6h2.7v-8.9c0-3.5,1.9-5.2,4.6-5.2
		c2.7,0,4.5,1.7,4.5,5v9.1h2.6v-9.5c0-4.6-2.8-6.9-6.4-6.9c-2.3,0-4.3,0.9-5.3,2.6v-7.9h-2.7L648.3,316.6z"/>
	<path id="path3532" inkscape:connector-curvature="0" class="st8" d="M673.9,302.6c2.8,0,5.1,1.7,5.1,4.9h-10.1
		C669.1,304.3,671.3,302.6,673.9,302.6z M681.4,311.7h-2.9c-0.6,1.7-2.1,3-4.5,3c-2.7,0-5-1.8-5.2-5h12.8c0.1-0.6,0.1-1,0.1-1.6
		c0-4.4-3.1-7.7-7.7-7.7c-4.7,0-7.9,3.2-7.9,8.3c0,5.1,3.4,8.3,7.9,8.3C678,316.9,680.6,314.6,681.4,311.7L681.4,311.7z"/>
	<path id="path3534" inkscape:connector-curvature="0" class="st8" d="M695.7,303.5v-3h-2.7v23.7h2.7v-10.6c1,1.6,3.1,3.2,6,3.2
		c4.3,0,7.6-3.4,7.6-8.4c0-5-3.3-8.2-7.6-8.2C698.8,300.3,696.7,301.8,695.7,303.5L695.7,303.5z M706.7,308.6c0,3.8-2.5,6-5.5,6
		c-2.9,0-5.5-2.2-5.5-6c0-3.7,2.6-6,5.5-6C704.2,302.6,706.7,304.8,706.7,308.6z"/>
	<path id="path3536" inkscape:connector-curvature="0" class="st8" d="M712.9,316.6h2.7v-21.7h-2.7V316.6z"/>
	<path id="path3538" inkscape:connector-curvature="0" class="st8" d="M719.1,308.6c0,5,3.3,8.4,7.6,8.4c3,0,5-1.5,6-3.3v3h2.7
		v-16.1h-2.7v2.9c-0.9-1.7-3-3.2-6-3.2C722.4,300.3,719.1,303.5,719.1,308.6L719.1,308.6z M732.7,308.6c0,3.8-2.5,6-5.5,6
		c-2.9,0-5.4-2.2-5.4-6c0-3.8,2.5-5.9,5.4-5.9C730.2,302.6,732.7,304.9,732.7,308.6z"/>
	<path id="path3540" inkscape:connector-curvature="0" class="st8" d="M740.5,312.2c0,3.2,1.6,4.4,4.5,4.4h2.4v-2.3h-2
		c-1.6,0-2.2-0.6-2.2-2.1v-9.5h4.2v-2.2h-4.2v-4h-2.7v4h-2.1v2.2h2.1L740.5,312.2z"/>
	<path id="path3542" inkscape:connector-curvature="0" class="st8" d="M751.1,316.6h2.7v-13.9h3.4v-2.2h-3.4v-1.1c0-2.1,0.8-3,3.2-3
		v-2.2c-4.1,0-5.9,1.6-5.9,5.2v1.1H749v2.2h2.1L751.1,316.6z"/>
	<path id="path3544" inkscape:connector-curvature="0" class="st8" d="M775.5,308.6c0-5.1-3.5-8.3-8.1-8.3c-4.5,0-8.1,3.2-8.1,8.3
		c0,5.1,3.5,8.3,8,8.3C771.8,316.9,775.5,313.7,775.5,308.6z M762,308.6c0-4,2.6-6,5.4-6c2.8,0,5.4,1.9,5.4,6c0,4.1-2.7,6-5.5,6
		S762,312.7,762,308.6z"/>
	<path id="path3546" inkscape:connector-curvature="0" class="st8" d="M781.7,307.9c0-3.7,1.9-4.9,4.5-4.9h0.7v-2.8
		c-2.6,0-4.3,1.1-5.2,2.9v-2.6H779v16.1h2.7V307.9z"/>
	<path id="path3548" inkscape:connector-curvature="0" class="st8" d="M813.2,316.6h2.6v-9.5c0-4.6-2.8-6.9-6.5-6.9
		c-2.5,0-4.8,1.3-5.7,3.6c-1.1-2.4-3.3-3.6-5.9-3.6c-2.1,0-4,0.9-5.1,2.6v-2.3H790v16.1h2.7v-8.9c0-3.5,1.8-5.2,4.5-5.2
		c2.6,0,4.4,1.7,4.4,5v9.1h2.6v-8.9c0-3.5,1.8-5.2,4.5-5.2c2.6,0,4.4,1.7,4.4,5V316.6z"/>
	<path id="path3550" inkscape:connector-curvature="0" class="st8" d="M828.6,312.2c0,3.2,1.6,4.4,4.5,4.4h2.4v-2.3h-2
		c-1.6,0-2.2-0.6-2.2-2.1v-9.5h4.2v-2.2h-4.2v-4h-2.7v4h-2.1v2.2h2.1L828.6,312.2z"/>
	<path id="path3552" inkscape:connector-curvature="0" class="st8" d="M853.9,308.6c0-5.1-3.5-8.3-8.1-8.3c-4.5,0-8.1,3.2-8.1,8.3
		c0,5.1,3.5,8.3,8,8.3C850.2,316.9,853.9,313.7,853.9,308.6L853.9,308.6z M840.4,308.6c0-4,2.6-6,5.4-6c2.8,0,5.4,1.9,5.4,6
		c0,4.1-2.7,6-5.5,6C842.9,314.6,840.4,312.7,840.4,308.6L840.4,308.6z"/>
	<path id="path3554" inkscape:connector-curvature="0" class="st8" d="M864.3,308.6c0,5,3.3,8.4,7.6,8.4c2.9,0,5-1.5,6-3.3v3h2.7
		v-21.7h-2.7v8.5c-1.1-1.8-3.4-3.1-6-3.1C867.6,300.3,864.3,303.5,864.3,308.6L864.3,308.6z M877.9,308.6c0,3.8-2.5,6-5.5,6
		s-5.4-2.2-5.4-6c0-3.8,2.5-5.9,5.4-5.9S877.9,304.9,877.9,308.6z"/>
	<path id="path3556" inkscape:connector-curvature="0" class="st8" d="M900.4,308.6c0-5.1-3.5-8.3-8.1-8.3c-4.5,0-8.1,3.2-8.1,8.3
		c0,5.1,3.5,8.3,8,8.3C896.7,316.9,900.4,313.7,900.4,308.6L900.4,308.6z M886.8,308.6c0-4,2.6-6,5.4-6c2.8,0,5.4,1.9,5.4,6
		c0,4.1-2.7,6-5.5,6C889.3,314.6,886.8,312.7,886.8,308.6L886.8,308.6z"/>
	<path id="path3558" inkscape:connector-curvature="0" class="st8" d="M902.9,308.6c0,5.1,3.3,8.3,7.8,8.3c4,0,6.6-2.2,7.4-5.4h-2.9
		c-0.6,2-2.2,3.2-4.5,3.2c-2.9,0-5.1-2.1-5.1-6.1c0-3.9,2.2-6,5.1-6c2.4,0,4,1.2,4.5,3.2h2.9c-0.8-3.4-3.4-5.4-7.4-5.4
		C906.2,300.3,902.9,303.5,902.9,308.6L902.9,308.6z"/>
	<path id="path3560" inkscape:connector-curvature="0" class="st8" d="M936,300.6h-2.7v8.8c0,3.5-1.8,5.2-4.6,5.2
		c-2.7,0-4.5-1.7-4.5-4.9v-9.1h-2.6v9.4c0,4.6,2.9,6.9,6.6,6.9c2.1,0,4.1-0.9,5.1-2.6v2.4h2.7L936,300.6z"/>
	<path id="path3562" inkscape:connector-curvature="0" class="st8" d="M963.7,316.6h2.6v-9.5c0-4.6-2.8-6.9-6.5-6.9
		c-2.5,0-4.8,1.3-5.7,3.6c-1.1-2.4-3.3-3.6-5.9-3.6c-2.1,0-4,0.9-5.1,2.6v-2.3h-2.7v16.1h2.7v-8.9c0-3.5,1.8-5.2,4.5-5.2
		c2.6,0,4.4,1.7,4.4,5v9.1h2.6v-8.9c0-3.5,1.8-5.2,4.5-5.2c2.6,0,4.4,1.7,4.4,5V316.6z"/>
	<path id="path3564" inkscape:connector-curvature="0" class="st8" d="M977.5,302.6c2.8,0,5.1,1.7,5.1,4.9h-10.1
		C972.8,304.3,974.9,302.6,977.5,302.6z M985.1,311.7h-2.9c-0.6,1.7-2.1,3-4.5,3c-2.7,0-5-1.8-5.2-5h12.8c0.1-0.6,0.1-1,0.1-1.6
		c0-4.4-3.1-7.7-7.7-7.7c-4.7,0-7.9,3.2-7.9,8.3c0,5.1,3.4,8.3,7.9,8.3C981.7,316.9,984.2,314.6,985.1,311.7L985.1,311.7z"/>
	<path id="path3566" inkscape:connector-curvature="0" class="st8" d="M1000.6,316.6h2.6v-9.5c0-4.6-2.8-6.9-6.6-6.9
		c-2.2,0-4.1,0.9-5.2,2.6v-2.3h-2.7v16.1h2.7v-8.9c0-3.5,1.9-5.2,4.6-5.2c2.7,0,4.5,1.7,4.5,5L1000.6,316.6z"/>
	<path id="path3568" inkscape:connector-curvature="0" class="st8" d="M1008.3,312.2c0,3.2,1.6,4.4,4.5,4.4h2.4v-2.3h-2
		c-1.6,0-2.2-0.6-2.2-2.1v-9.5h4.2v-2.2h-4.2v-4h-2.7v4h-2.1v2.2h2.1L1008.3,312.2z"/>
	<path id="path3570" inkscape:connector-curvature="0" class="st8" d="M631.4,351.4c0,5,3.3,8.4,7.6,8.4c3,0,5-1.5,6-3.3v3h2.7
		v-16.1H645v2.9c-0.9-1.7-3-3.2-6-3.2C634.7,343.2,631.4,346.4,631.4,351.4L631.4,351.4z M645,351.4c0,3.8-2.5,6-5.5,6
		c-2.9,0-5.4-2.2-5.4-6c0-3.8,2.5-5.9,5.4-5.9C642.5,345.5,645,347.7,645,351.4L645,351.4z"/>
	<path id="path3572" inkscape:connector-curvature="0" class="st8" d="M664,359.5h2.6V350c0-4.6-2.8-6.9-6.6-6.9
		c-2.2,0-4.1,0.9-5.2,2.6v-2.3h-2.7v16.1h2.7v-8.9c0-3.5,1.9-5.2,4.6-5.2c2.7,0,4.5,1.7,4.5,5V359.5z"/>
	<path id="path3574" inkscape:connector-curvature="0" class="st8" d="M670,351.4c0,5,3.3,8.4,7.6,8.4c2.9,0,5-1.5,6-3.3v3h2.7
		v-21.7h-2.7v8.5c-1.1-1.8-3.4-3.1-6-3.1C673.3,343.2,670,346.4,670,351.4L670,351.4z M683.6,351.4c0,3.8-2.5,6-5.5,6
		c-2.9,0-5.4-2.2-5.4-6c0-3.8,2.5-5.9,5.4-5.9C681.1,345.5,683.6,347.7,683.6,351.4L683.6,351.4z"/>
	<path id="path3576" inkscape:connector-curvature="0" class="st8" d="M701.4,346.4v-3h-2.7v23.7h2.7v-10.6c1,1.6,3.1,3.2,6,3.2
		c4.3,0,7.6-3.4,7.6-8.4c0-5-3.3-8.2-7.6-8.2C704.4,343.2,702.3,344.7,701.4,346.4z M712.3,351.4c0,3.8-2.5,6-5.5,6
		c-2.9,0-5.5-2.2-5.5-6c0-3.7,2.6-6,5.5-6C709.8,345.5,712.3,347.6,712.3,351.4L712.3,351.4z"/>
	<path id="path3578" inkscape:connector-curvature="0" class="st8" d="M721.2,350.8c0-3.7,1.9-4.9,4.5-4.9h0.7v-2.8
		c-2.6,0-4.3,1.1-5.2,2.9v-2.6h-2.7v16.1h2.7V350.8z"/>
	<path id="path3580" inkscape:connector-curvature="0" class="st8" d="M744.7,351.4c0-5.1-3.5-8.3-8.1-8.3c-4.5,0-8.1,3.2-8.1,8.3
		c0,5.1,3.5,8.3,8,8.3C741,359.8,744.7,356.5,744.7,351.4z M731.2,351.4c0-4,2.6-6,5.4-6c2.8,0,5.4,1.9,5.4,6c0,4.1-2.7,6-5.5,6
		C733.7,357.4,731.2,355.5,731.2,351.4z"/>
	<path id="path3582" inkscape:connector-curvature="0" class="st8" d="M748.8,355.1c0,3.2,1.6,4.4,4.5,4.4h2.4v-2.3h-2
		c-1.6,0-2.2-0.6-2.2-2.1v-9.5h4.2v-2.2h-4.2v-4h-2.7v4h-2.1v2.2h2.1L748.8,355.1z"/>
	<path id="path3584" inkscape:connector-curvature="0" class="st8" d="M765.7,345.4c2.8,0,5.1,1.7,5.1,4.9h-10.1
		C761,347.2,763.1,345.4,765.7,345.4z M773.2,354.5h-2.9c-0.6,1.7-2.1,3-4.5,3c-2.7,0-5-1.8-5.2-5h12.8c0.1-0.6,0.1-1,0.1-1.6
		c0-4.4-3.1-7.7-7.7-7.7c-4.7,0-7.9,3.2-7.9,8.3c0,5.1,3.4,8.3,7.9,8.3C769.8,359.8,772.4,357.5,773.2,354.5L773.2,354.5z"/>
	<path id="path3586" inkscape:connector-curvature="0" class="st8" d="M776.1,351.4c0,5.1,3.3,8.3,7.8,8.3c4,0,6.6-2.2,7.4-5.4h-2.9
		c-0.6,2-2.2,3.2-4.5,3.2c-2.9,0-5.1-2.1-5.1-6.1c0-3.9,2.2-6,5.1-6c2.4,0,4,1.2,4.5,3.2h2.9c-0.8-3.4-3.4-5.4-7.4-5.4
		C779.3,343.2,776.1,346.4,776.1,351.4L776.1,351.4z"/>
	<path id="path3588" inkscape:connector-curvature="0" class="st8" d="M795.5,355.1c0,3.2,1.6,4.4,4.5,4.4h2.4v-2.3h-2
		c-1.6,0-2.2-0.6-2.2-2.1v-9.5h4.2v-2.2h-4.2v-4h-2.7v4h-2.1v2.2h2.1V355.1z"/>
	<path id="path3590" inkscape:connector-curvature="0" class="st8" d="M812.4,351.4c0,5.1,3.3,8.3,7.8,8.3c4,0,6.6-2.2,7.4-5.4h-2.9
		c-0.6,2-2.2,3.2-4.5,3.2c-2.9,0-5.1-2.1-5.1-6.1c0-3.9,2.2-6,5.1-6c2.4,0,4,1.2,4.5,3.2h2.9c-0.8-3.4-3.4-5.4-7.4-5.4
		C815.6,343.2,812.4,346.4,812.4,351.4L812.4,351.4z"/>
	<path id="path3592" inkscape:connector-curvature="0" class="st8" d="M846.5,351.4c0-5.1-3.5-8.3-8.1-8.3c-4.5,0-8.1,3.2-8.1,8.3
		c0,5.1,3.5,8.3,8,8.3C842.8,359.8,846.5,356.5,846.5,351.4L846.5,351.4z M832.9,351.4c0-4,2.6-6,5.4-6c2.8,0,5.4,1.9,5.4,6
		c0,4.1-2.7,6-5.5,6C835.4,357.4,832.9,355.5,832.9,351.4L832.9,351.4z"/>
	<path id="path3594" inkscape:connector-curvature="0" class="st8" d="M852.7,346.4v-3H850v23.7h2.7v-10.6c1,1.6,3.1,3.2,6,3.2
		c4.3,0,7.6-3.4,7.6-8.4c0-5-3.3-8.2-7.6-8.2C855.7,343.2,853.6,344.7,852.7,346.4z M863.6,351.4c0,3.8-2.5,6-5.5,6
		c-2.9,0-5.5-2.2-5.5-6c0-3.7,2.6-6,5.5-6C861.1,345.5,863.6,347.6,863.6,351.4L863.6,351.4z"/>
	<path id="path3596" inkscape:connector-curvature="0" class="st8" d="M875.9,356.5l-5-13h-3l6.5,15.9l-3.2,7.7h2.8l9.7-23.6h-2.8
		L875.9,356.5z"/>
	<path id="path3598" inkscape:connector-curvature="0" class="st8" d="M889,350.8c0-3.7,1.9-4.9,4.5-4.9h0.7v-2.8
		c-2.6,0-4.3,1.1-5.2,2.9v-2.6h-2.7v16.1h2.7L889,350.8z"/>
	<path id="path3600" inkscape:connector-curvature="0" class="st8" d="M897.3,359.5h2.7v-16.1h-2.7V359.5z M898.6,340.8
		c1,0,1.8-0.8,1.8-1.8c0-1-0.8-1.8-1.8-1.8c-1,0-1.8,0.8-1.8,1.8C896.8,340,897.6,340.8,898.6,340.8z"/>
	<path id="path3602" inkscape:connector-curvature="0" class="st8" d="M903.5,351.4c0,5,3.3,8.4,7.6,8.4c2.9,0,5-1.6,6-3.3v3.4
		c0,3.4-2.1,5.3-5,5.3c-2.6,0-4.5-1.3-5.1-3.3h-2.6c0.5,3.4,3.5,5.6,7.8,5.6c4.7,0,7.7-3.1,7.7-7.6v-16.4h-2.7v2.9
		c-0.9-1.7-3.1-3.2-6-3.2C906.8,343.2,903.5,346.4,903.5,351.4L903.5,351.4z M917.1,351.4c0,3.8-2.5,6-5.5,6c-2.9,0-5.4-2.2-5.4-6
		c0-3.8,2.5-5.9,5.4-5.9C914.6,345.5,917.1,347.7,917.1,351.4L917.1,351.4z"/>
	<path id="path3604" inkscape:connector-curvature="0" class="st8" d="M924.3,359.5h2.7v-8.9c0-3.5,1.9-5.2,4.6-5.2
		c2.7,0,4.5,1.7,4.5,5v9.1h2.6V350c0-4.6-2.8-6.9-6.4-6.9c-2.3,0-4.3,0.9-5.3,2.6v-7.9h-2.7L924.3,359.5z"/>
	<path id="path3606" inkscape:connector-curvature="0" class="st8" d="M943.7,355.1c0,3.2,1.6,4.4,4.5,4.4h2.4v-2.3h-2
		c-1.6,0-2.2-0.6-2.2-2.1v-9.5h4.2v-2.2h-4.2v-4h-2.7v4h-2.1v2.2h2.1L943.7,355.1z"/>
	<path id="path3608" inkscape:connector-curvature="0" class="st8" d="M965.3,355.1c-0.1-5.7-9.4-3.7-9.4-7.5c0-1.3,1.2-2.2,3.1-2.2
		c2.1,0,3.4,1.2,3.5,2.8h2.7c-0.2-3.1-2.5-5-6.1-5c-3.6,0-5.9,2-5.9,4.5c0,6,9.5,3.9,9.5,7.5c0,1.3-1.2,2.4-3.3,2.4
		c-2.3,0-3.6-1.2-3.8-2.7h-2.8c0.2,2.9,2.8,5,6.6,5C963,359.8,965.3,357.8,965.3,355.1L965.3,355.1z"/>
	<path id="path3610" inkscape:connector-curvature="0" class="st8" d="M992.2,351.4c0-5.1-3.5-8.3-8.1-8.3c-4.5,0-8.1,3.2-8.1,8.3
		c0,5.1,3.5,8.3,8,8.3C988.5,359.8,992.2,356.5,992.2,351.4z M978.6,351.4c0-4,2.6-6,5.4-6c2.8,0,5.4,1.9,5.4,6c0,4.1-2.7,6-5.5,6
		S978.6,355.5,978.6,351.4L978.6,351.4z"/>
	<path id="path3612" inkscape:connector-curvature="0" class="st8" d="M1007.5,359.5h2.6V350c0-4.6-2.8-6.9-6.6-6.9
		c-2.2,0-4.1,0.9-5.2,2.6v-2.3h-2.7v16.1h2.7v-8.9c0-3.5,1.9-5.2,4.6-5.2c2.7,0,4.5,1.7,4.5,5L1007.5,359.5z"/>
	<path id="path3614" inkscape:connector-curvature="0" class="st8" d="M1014.5,359.5h2.7v-21.7h-2.7V359.5z"/>
	<path id="path3616" inkscape:connector-curvature="0" class="st8" d="M1021.7,359.5h2.7v-16.1h-2.7V359.5z M1023.1,340.8
		c1,0,1.8-0.8,1.8-1.8c0-1-0.8-1.8-1.8-1.8c-1,0-1.8,0.8-1.8,1.8C1021.3,340,1022.1,340.8,1023.1,340.8z"/>
	<path id="path3618" inkscape:connector-curvature="0" class="st8" d="M1040.7,359.5h2.6V350c0-4.6-2.8-6.9-6.6-6.9
		c-2.2,0-4.1,0.9-5.2,2.6v-2.3h-2.7v16.1h2.7v-8.9c0-3.5,1.9-5.2,4.6-5.2c2.7,0,4.5,1.7,4.5,5L1040.7,359.5z"/>
	<path id="path3620" inkscape:connector-curvature="0" class="st8" d="M1054.5,345.4c2.8,0,5.1,1.7,5.1,4.9h-10.1
		C1049.8,347.2,1051.9,345.4,1054.5,345.4z M1062.1,354.5h-2.9c-0.6,1.7-2.1,3-4.5,3c-2.7,0-5-1.8-5.2-5h12.8c0.1-0.6,0.1-1,0.1-1.6
		c0-4.4-3.1-7.7-7.7-7.7c-4.7,0-7.9,3.2-7.9,8.3c0,5.1,3.4,8.3,7.9,8.3C1058.7,359.8,1061.2,357.5,1062.1,354.5L1062.1,354.5z"/>
</g>
</svg>
